<?xml version="1.0" standalone="no"?>
<!DOCTYPE svg PUBLIC "-//W3C//DTD SVG 1.1//EN" "http://www.w3.org/Graphics/SVG/1.1/DTD/svg11.dtd" >
<svg xmlns="http://www.w3.org/2000/svg" xmlns:xlink="http://www.w3.org/1999/xlink" version="1.1">
<metadata>
Created by FontForge 20161116 at Wed Mar 16 00:36:18 2005
 By Jimmy Wärting
Copyright 2004 Process Type Foundry. All rights reserved.
</metadata>
<defs>
<font id="KlavikaMedium-Italic" horiz-adv-x="540" >
  <font-face 
    font-family="Klavika Medium"
    font-weight="550"
    font-style="italic"
    font-stretch="normal"
    units-per-em="1000"
    panose-1="2 0 6 6 4 0 0 2 0 4"
    ascent="800"
    descent="-200"
    x-height="487"
    cap-height="666"
    bbox="-75 -214 1181 874"
    underline-thickness="20"
    underline-position="-133"
    stemh="101"
    stemv="120"
    unicode-range="U+0020-FB02"
  />
<missing-glyph horiz-adv-x="632" 
d="M110 0v666h462v-666h-462zM527 623h-346l346 -544v544zM155 586v-543h344z" />
    <glyph glyph-name="fi" unicode="fi" horiz-adv-x="608" 
d="M373 0l68 389h-192l-73 -412c-14 -79 -43 -128 -106 -184l-77 72c39 38 56 70 65 123l71 401h-75l17 98h75l12 70c18 103 64 149 173 149c55 0 116 -14 169 -34l-24 -88c-40 13 -98 24 -136 24c-41 0 -55 -13 -61 -46l-13 -75h256l58 8l-87 -495h-120z" />
    <glyph glyph-name="fl" unicode="fl" horiz-adv-x="608" 
d="M387 487l-26 -98h-112l-73 -412c-14 -79 -43 -128 -106 -184l-77 72c39 38 56 70 65 123l71 401h-75l17 98h75l12 70c18 103 60 149 183 149c40 0 92 -6 153 -20l123 17l-124 -703h-120l105 595c-49 9 -97 15 -135 15c-42 0 -58 -14 -64 -48l-13 -75h121z" />
    <glyph glyph-name=".notdef" horiz-adv-x="632" 
d="M110 0v666h462v-666h-462zM527 623h-346l346 -544v544zM155 586v-543h344z" />
    <glyph glyph-name="space" unicode=" " horiz-adv-x="210" 
 />
    <glyph glyph-name="breve" unicode="&#x2d8;" horiz-adv-x="399" 
d="M244 534c-79 0 -124 54 -129 110l63 25c8 -38 27 -65 75 -65c49 0 75 31 93 70l58 -31c-18 -54 -65 -109 -160 -109z" />
    <glyph glyph-name="dotaccent" unicode="&#x2d9;" horiz-adv-x="257" 
d="M115 549l24 137l123 17l-24 -136z" />
    <glyph glyph-name="ring" unicode="&#x2da;" horiz-adv-x="293" 
d="M189 535c-43 0 -74 30 -74 70c0 61 40 101 104 101c47 0 74 -31 74 -67c0 -55 -32 -104 -104 -104zM212 662c-26 0 -46 -22 -46 -51c0 -18 8 -31 30 -31c29 0 46 22 46 51c0 19 -10 31 -30 31z" />
    <glyph glyph-name="hungarumlaut" unicode="&#x2dd;" horiz-adv-x="455" 
d="M168 532l-48 56c44 37 77 66 121 114l53 -64c-42 -41 -85 -77 -126 -106zM344 532l-48 56c44 37 77 66 121 114l53 -64c-42 -41 -85 -77 -126 -106z" />
    <glyph glyph-name="ogonek" unicode="&#x2db;" horiz-adv-x="323" 
d="M154 -135l3 -59c-22 -9 -49 -13 -71 -13c-56 0 -86 23 -86 63c0 67 64 108 146 144h52c-80 -54 -108 -83 -108 -116c0 -14 8 -23 30 -23c10 0 23 1 34 4z" />
    <glyph glyph-name="caron" unicode="&#x2c7;" horiz-adv-x="375" 
d="M153 693c36 -19 67 -42 93 -65c34 25 61 42 104 65l35 -58c-51 -31 -93 -58 -155 -103c-34 39 -71 73 -115 108z" />
    <glyph glyph-name="dotlessi" unicode="&#x131;" horiz-adv-x="260" 
d="M25 0l84 478l123 17l-87 -495h-120z" />
    <glyph glyph-name="fraction" unicode="&#x2044;" horiz-adv-x="368" 
d="M7 -46l-57 36l421 699l57 -34z" />
    <glyph glyph-name="Lslash" unicode="&#x141;" horiz-adv-x="531" 
d="M35 233l-16 74l99 41l56 318h124l-47 -268l146 63l21 -74l-182 -75l-36 -203h275l-19 -109h-399l45 259z" />
    <glyph glyph-name="lslash" unicode="&#x142;" horiz-adv-x="328" 
d="M53 242l-17 74l84 34l59 336l123 17l-53 -303l78 33l16 -76l-110 -45l-55 -312h-120l46 262z" />
    <glyph glyph-name="Zcaron" unicode="&#x17d;" horiz-adv-x="571" 
d="M47 0l-2 102l374 458h-309l19 106h435l-1 -103l-376 -459h304l-19 -104h-425zM276 851c40 -20 57 -32 85 -52c28 21 56 37 88 52l34 -59c-51 -29 -87 -51 -137 -86c-27 28 -62 57 -109 91z" />
    <glyph glyph-name="zcaron" unicode="&#x17e;" horiz-adv-x="461" 
d="M41 0l-4 93l254 299h-207l14 95h333l-1 -92l-255 -299h210l-16 -96h-328zM190 693c36 -19 67 -42 93 -65c34 25 61 42 104 65l35 -58c-51 -31 -93 -58 -155 -103c-34 39 -71 73 -115 108z" />
    <glyph glyph-name="exclam" unicode="!" horiz-adv-x="280" 
d="M168 217h-69l5 172l52 297h120l-52 -297zM34 0l26 146h121l-26 -146h-121z" />
    <glyph glyph-name="quotedbl" unicode="&#x22;" horiz-adv-x="390" 
d="M100 439l44 247h86l-44 -247h-86zM275 439l44 247h86l-44 -247h-86z" />
    <glyph glyph-name="numbersign" unicode="#" horiz-adv-x="697" 
d="M668 408h-119l-34 -163h122l-17 -81h-122l-33 -164h-87l33 164h-158l-34 -164h-87l34 164h-124l17 81h124l33 163h-125l17 81h125l33 157h87l-33 -157h159l33 157h87l-33 -157h119zM303 408l-33 -163h158l34 163h-159z" />
    <glyph glyph-name="dollar" unicode="$" horiz-adv-x="507" 
d="M134 -118l20 110c-50 3 -93 12 -139 30l28 97c56 -17 110 -26 161 -26c80 0 97 19 108 84c3 18 5 33 5 44c0 31 -19 41 -89 60c-108 30 -137 58 -137 115c0 22 3 48 9 80c24 135 61 170 195 179l20 111h97l-20 -112c36 -3 66 -9 102 -18l-23 -102c-50 11 -108 17 -153 17
c-77 0 -88 -13 -99 -76c-3 -17 -5 -29 -5 -39c0 -31 18 -39 91 -61c109 -33 137 -61 137 -118c0 -22 -4 -48 -10 -80c-19 -112 -50 -171 -181 -184l-20 -111h-97z" />
    <glyph glyph-name="percent" unicode="%" horiz-adv-x="864" 
d="M663 637l-378 -647l-66 42l379 644zM389 454c-15 -86 -51 -142 -179 -142c-99 0 -131 48 -131 111c0 14 2 31 4 42l15 85c15 85 56 126 176 126c89 0 132 -43 132 -109c0 -11 -1 -21 -3 -33zM293 442l17 98c6 34 -5 56 -51 56s-62 -15 -68 -51l-17 -97
c-1 -6 -2 -14 -2 -18c0 -24 14 -38 52 -38c46 0 63 14 69 50zM792 132c-15 -86 -51 -142 -179 -142c-99 0 -131 48 -131 111c0 14 2 31 4 42l15 85c15 85 56 126 176 126c89 0 132 -43 132 -109c0 -11 -1 -21 -3 -33zM696 120l17 98c6 34 -5 56 -51 56s-62 -15 -68 -51
l-17 -97c-1 -6 -2 -14 -2 -18c0 -24 14 -38 52 -38c46 0 63 14 69 50z" />
    <glyph glyph-name="ampersand" unicode="&#x26;" horiz-adv-x="719" 
d="M445 379c0 -32 -8 -64 -36 -92h112c86 0 122 16 175 54l43 -70c-48 -43 -112 -73 -200 -73c-68 -129 -173 -208 -339 -208c-114 0 -166 47 -166 127c0 11 1 23 3 36l31 176c21 118 83 168 212 168c105 0 165 -48 165 -118zM203 87c96 0 162 29 219 111h-134l-22 89
c47 13 74 40 74 74c0 26 -25 41 -64 41c-52 0 -80 -22 -88 -67l-33 -187c-2 -11 -3 -20 -3 -26c0 -21 11 -35 51 -35z" />
    <glyph glyph-name="quotesingle" unicode="'" horiz-adv-x="215" 
d="M100 439l44 247h86l-44 -247h-86z" />
    <glyph glyph-name="parenleft" unicode="(" horiz-adv-x="310" 
d="M148 -153c-60 106 -91 232 -91 335c0 222 72 430 256 579l71 -70c-155 -155 -207 -310 -207 -506c0 -82 21 -187 68 -289z" />
    <glyph glyph-name="parenright" unicode=")" horiz-adv-x="309" 
d="M174 761c60 -106 91 -232 91 -335c0 -222 -72 -430 -256 -579l-71 70c155 155 207 310 207 506c0 82 -21 187 -68 289z" />
    <glyph glyph-name="asterisk" unicode="*" horiz-adv-x="464" 
d="M137 376l92 114h-134l10 56h138l-55 121l54 28l56 -122l99 124l44 -34l-95 -117h138l-10 -56h-138l56 -118l-54 -28l-57 121l-100 -123z" />
    <glyph glyph-name="plus" unicode="+" horiz-adv-x="513" 
d="M305 196v-156h-97v156h-153v94h153v157h97v-157h153v-94h-153z" />
    <glyph glyph-name="comma" unicode="," horiz-adv-x="271" 
d="M54 -139l-44 34l71 105h-46l26 146h120l-27 -155z" />
    <glyph glyph-name="hyphen" unicode="-" horiz-adv-x="368" 
d="M66 231l18 100h248l-18 -100h-248z" />
    <glyph glyph-name="period" unicode="." horiz-adv-x="277" 
d="M40 0l26 146h121l-26 -146h-121z" />
    <glyph glyph-name="slash" unicode="/" horiz-adv-x="463" 
d="M101 -117h-113l387 793h113z" />
    <glyph glyph-name="zero" unicode="0" horiz-adv-x="557" 
d="M232 -10c-135 0 -186 57 -186 138c0 13 2 30 4 41l55 313c21 120 86 174 245 174c117 0 184 -61 184 -148c0 -10 -1 -21 -3 -32l-55 -311c-20 -113 -68 -175 -244 -175zM361 182l50 283c2 12 3 20 3 27c0 39 -22 59 -84 59c-75 0 -99 -25 -110 -87l-51 -287
c-2 -12 -3 -23 -3 -32c0 -35 14 -50 84 -50c78 0 100 25 111 87z" />
    <glyph glyph-name="one" unicode="1" horiz-adv-x="380" 
d="M135 0l90 511l-131 -64l-41 92l206 107h110l-114 -646h-120z" />
    <glyph glyph-name="two" unicode="2" horiz-adv-x="503" 
d="M12 0l18 104c86 80 156 147 233 221c78 78 86 88 96 146l4 23c1 6 1 10 1 13c0 31 -26 43 -86 43c-47 0 -122 -11 -167 -22l-12 97c60 19 139 31 204 31c120 0 181 -50 181 -130c0 -10 -1 -21 -3 -32l-4 -23c-15 -86 -20 -107 -133 -220c-72 -72 -97 -96 -150 -146h222
l-18 -105h-386z" />
    <glyph glyph-name="three" unicode="3" horiz-adv-x="491" 
d="M189 -10c-51 0 -124 11 -174 33l25 91c43 -12 101 -24 147 -24c88 0 104 16 113 69l8 45c1 7 2 13 2 19c0 33 -18 50 -70 50h-137l18 102h135c54 0 73 23 81 68l10 56c1 6 2 12 2 17c0 33 -25 42 -86 42c-40 0 -96 -8 -137 -16l-10 92c52 14 118 22 174 22
c126 0 182 -42 182 -115c0 -9 -1 -19 -3 -30l-11 -63c-11 -61 -21 -101 -94 -124c47 -15 65 -54 65 -98c0 -3 0 -16 -2 -28l-9 -51c-18 -102 -55 -157 -229 -157z" />
    <glyph glyph-name="four" unicode="4" horiz-adv-x="560" 
d="M433 147l-26 -147h-118l26 147h-301l18 108l322 391h167l-71 -401h85l-14 -98h-88zM383 531l-230 -286h179z" />
    <glyph glyph-name="five" unicode="5" horiz-adv-x="497" 
d="M191 -10c-49 0 -118 10 -174 30l27 96c51 -14 105 -22 153 -22c90 0 101 22 110 76l6 34c1 6 2 15 2 20c0 41 -30 51 -94 54c-70 3 -83 4 -138 7l63 361h352l-18 -104h-233l-29 -165c27 -1 45 -2 79 -5c96 -9 140 -53 140 -127c0 -13 -2 -26 -4 -40l-6 -35
c-23 -130 -59 -180 -236 -180z" />
    <glyph glyph-name="six" unicode="6" horiz-adv-x="524" 
d="M222 -10c-133 0 -176 57 -176 134c0 16 2 34 5 52l46 261c30 169 88 219 268 219c43 0 98 -7 147 -23l-22 -93c-37 9 -89 15 -118 15c-117 0 -140 -21 -155 -107l-14 -80c36 10 77 16 124 16c102 0 142 -44 142 -118c0 -14 -1 -28 -4 -45l-8 -46
c-21 -117 -54 -185 -235 -185zM337 164l10 58c1 8 2 14 2 20c0 28 -18 39 -59 39c-37 0 -74 -8 -106 -21l-16 -90c-2 -11 -3 -19 -3 -27c0 -36 18 -50 75 -50c66 0 88 19 97 71z" />
    <glyph glyph-name="seven" unicode="7" horiz-adv-x="455" 
d="M153 0h-128l328 541h-280l18 105h405l-18 -101z" />
    <glyph glyph-name="eight" unicode="8" horiz-adv-x="542" 
d="M226 -10c-124 0 -186 43 -186 128c0 11 1 23 3 36l9 50c11 62 46 98 129 125c-47 33 -70 68 -70 109c0 7 1 16 2 21l7 40c19 109 64 157 221 157c106 0 172 -48 172 -128c0 -7 -1 -18 -3 -29l-8 -45c-11 -62 -31 -90 -105 -125c56 -31 79 -62 79 -105
c0 -10 -1 -20 -2 -25l-8 -46c-20 -114 -62 -163 -240 -163zM388 459l7 40c1 6 2 12 2 16c0 29 -21 43 -71 43c-63 0 -83 -19 -91 -64l-6 -35c-1 -6 -2 -13 -2 -19c0 -28 16 -44 67 -67c66 26 87 47 94 86zM352 159l5 28c1 6 2 16 2 21c0 30 -19 42 -84 71
c-91 -33 -103 -47 -111 -91l-5 -29c-1 -6 -2 -15 -2 -22c0 -34 22 -48 86 -48c76 0 100 20 109 70z" />
    <glyph glyph-name="nine" unicode="9" horiz-adv-x="523" 
d="M325 656c121 0 176 -57 176 -134c0 -16 -2 -34 -5 -52l-46 -261c-30 -169 -88 -219 -268 -219c-43 0 -99 7 -150 24l22 93c40 -10 92 -16 121 -16c117 0 140 21 155 107l14 80c-36 -10 -77 -16 -124 -16c-102 0 -142 44 -142 118c0 14 1 28 4 45l8 46
c22 124 54 185 235 185zM210 482l-10 -58c-1 -8 -2 -14 -2 -20c0 -28 18 -39 59 -39c37 0 74 8 106 21l16 90c2 11 3 19 3 27c0 36 -18 50 -75 50c-66 0 -88 -19 -97 -71z" />
    <glyph glyph-name="colon" unicode=":" horiz-adv-x="280" 
d="M35 0l26 146h121l-26 -146h-121zM88 298l26 146h121l-26 -146h-121z" />
    <glyph glyph-name="semicolon" unicode=";" horiz-adv-x="280" 
d="M88 298l26 146h121l-26 -146h-121zM54 -139l-44 34l71 105h-46l26 146h120l-27 -155z" />
    <glyph glyph-name="less" unicode="&#x3c;" horiz-adv-x="581" 
d="M518 426l-359 -182l359 -182l-37 -71l-431 221v64l431 221z" />
    <glyph glyph-name="equal" unicode="=" horiz-adv-x="490" 
d="M55 305v81h395v-81h-395zM55 114v81h395v-81h-395z" />
    <glyph glyph-name="greater" unicode="&#x3e;" horiz-adv-x="581" 
d="M422 244l-359 182l37 71l431 -221v-64l-431 -221l-37 71z" />
    <glyph glyph-name="question" unicode="?" horiz-adv-x="492" 
d="M241 231l-60 91c50 34 87 60 121 85c52 39 55 47 64 98c2 14 4 25 4 35c0 35 -20 50 -92 50c-41 0 -100 -8 -143 -17l-12 103c52 12 124 20 181 20c135 0 187 -47 187 -134c0 -16 -2 -33 -5 -52c-16 -89 -25 -128 -106 -184c-56 -39 -76 -53 -139 -95zM119 0l26 146h121
l-26 -146h-121z" />
    <glyph glyph-name="at" unicode="@" horiz-adv-x="738" 
d="M521 203c-29 0 -58 10 -73 29c-29 -19 -60 -29 -101 -29c-61 0 -91 42 -82 92l17 97c12 67 41 98 124 98c47 0 94 -14 127 -31l-33 -189c9 -3 20 -4 25 -4c85 0 118 79 118 171c0 105 -73 167 -203 167c-189 0 -299 -133 -299 -330c0 -132 72 -211 231 -211
c75 0 150 18 211 44l10 -68c-62 -32 -133 -49 -223 -49c-214 0 -310 116 -310 277c0 249 138 409 387 409c176 0 276 -100 276 -237s-58 -236 -202 -236zM398 427c-29 0 -41 -13 -45 -36l-16 -90c-3 -18 0 -35 32 -35c21 0 42 5 62 17l24 136c-19 5 -35 8 -57 8z" />
    <glyph glyph-name="A" unicode="A" horiz-adv-x="647" 
d="M451 0l-18 142h-247l-67 -142h-134l327 666h168l100 -666h-129zM384 567l-150 -321h186z" />
    <glyph glyph-name="B" unicode="B" horiz-adv-x="579" 
d="M308 0h-278l117 666h259c111 0 157 -39 157 -107c0 -9 -1 -20 -3 -31l-13 -74c-10 -55 -33 -88 -100 -110c52 -16 83 -49 83 -102c0 -7 0 -14 -2 -26l-12 -68c-16 -90 -62 -148 -208 -148zM423 448l11 63c1 6 2 11 2 16c0 27 -18 40 -57 39h-125l-32 -181h114
c54 0 80 22 87 63zM395 165l10 56c1 6 1 13 1 15c0 32 -21 52 -65 52h-136l-34 -188h129c62 0 86 14 95 65z" />
    <glyph glyph-name="C" unicode="C" horiz-adv-x="519" 
d="M251 -10c-143 0 -206 68 -206 161c0 17 2 31 4 42l51 289c25 142 104 194 266 194c62 0 120 -10 180 -26l-26 -106c-53 11 -120 20 -166 20c-84 0 -119 -19 -134 -105l-44 -249c-2 -12 -4 -25 -4 -36c0 -50 27 -72 100 -72c47 0 111 6 168 17l4 -106
c-54 -15 -125 -23 -193 -23z" />
    <glyph glyph-name="D" unicode="D" horiz-adv-x="604" 
d="M290 0h-260l118 666h244c140 0 193 -74 193 -159c0 -14 -1 -26 -4 -42l-51 -289c-18 -102 -65 -176 -240 -176zM412 210l44 250c2 11 3 22 3 30c0 43 -23 67 -95 67h-112l-79 -448h118c87 0 109 33 121 101z" />
    <glyph glyph-name="E" unicode="E" horiz-adv-x="534" 
d="M30 0l117 666h409l-20 -109h-284l-28 -159h263l-19 -109h-263l-32 -180h284l-18 -109h-409z" />
    <glyph glyph-name="F" unicode="F" horiz-adv-x="519" 
d="M252 557l-31 -177h265l-19 -109h-265l-48 -271h-124l118 666h410l-19 -109h-287z" />
    <glyph glyph-name="G" unicode="G" horiz-adv-x="590" 
d="M257 -10c-152 0 -212 63 -212 157c0 14 1 29 4 46l51 289c23 129 88 194 266 194c65 0 141 -12 203 -32l-26 -106c-62 16 -136 26 -190 26c-91 0 -119 -26 -133 -105l-44 -249c-3 -16 -4 -32 -4 -43c0 -41 20 -67 98 -67c33 0 73 3 111 11l36 197h117l-50 -280
c-59 -24 -143 -38 -227 -38z" />
    <glyph glyph-name="H" unicode="H" horiz-adv-x="639" 
d="M395 0l49 282h-241l-49 -282h-124l117 666h124l-48 -275h241l48 275h124l-117 -666h-124z" />
    <glyph glyph-name="I" unicode="I" horiz-adv-x="284" 
d="M35 0l117 666h124l-117 -666h-124z" />
    <glyph glyph-name="J" unicode="J" horiz-adv-x="284" 
d="M276 666l-120 -683c-11 -65 -24 -85 -168 -189l-62 88c89 70 102 77 109 117l117 667h124z" />
    <glyph glyph-name="K" unicode="K" horiz-adv-x="595" 
d="M386 0l-156 340l251 326h151l-265 -329l156 -337h-137zM30 0l117 666h124l-117 -666h-124z" />
    <glyph glyph-name="L" unicode="L" horiz-adv-x="504" 
d="M30 0l117 666h124l-98 -557h275l-19 -109h-399z" />
    <glyph glyph-name="M" unicode="M" horiz-adv-x="799" 
d="M568 0l58 428l-192 -341h-135l-64 342l-96 -429h-122l152 666h132l87 -451l252 451h136l-84 -666h-124z" />
    <glyph glyph-name="N" unicode="N" horiz-adv-x="679" 
d="M403 0l-165 494l-87 -494h-121l117 666h155l165 -507l89 507h120l-117 -666h-156z" />
    <glyph glyph-name="O" unicode="O" horiz-adv-x="622" 
d="M264 -10c-152 0 -218 68 -218 165c0 14 1 29 4 44l49 277c23 131 97 200 280 200c152 0 223 -78 223 -176c0 -12 -1 -23 -3 -35l-48 -272c-24 -135 -94 -203 -287 -203zM429 203l46 262c1 8 2 16 2 23c0 50 -29 79 -111 79c-89 0 -133 -34 -145 -102l-46 -261
c-2 -12 -3 -23 -3 -33c0 -47 27 -72 112 -72c91 0 133 37 145 104z" />
    <glyph glyph-name="P" unicode="P" horiz-adv-x="575" 
d="M337 217h-145l-38 -217h-124l117 666h247c137 0 196 -53 196 -143c0 -13 -1 -30 -4 -46l-15 -85c-19 -111 -63 -175 -234 -175zM449 403l12 68c2 11 3 21 3 28c0 38 -20 58 -76 58h-136l-41 -233h134c74 0 94 23 104 79z" />
    <glyph glyph-name="Q" unicode="Q" horiz-adv-x="622" 
d="M457 -99l-19 -98c-90 19 -205 33 -292 38l18 96c85 -1 200 -13 293 -36zM264 -10c-152 0 -218 68 -218 165c0 14 1 29 4 44l49 277c23 131 97 200 280 200c152 0 223 -78 223 -176c0 -12 -1 -23 -3 -35l-48 -272c-24 -135 -94 -203 -287 -203zM429 203l46 262
c1 8 2 16 2 23c0 50 -29 79 -111 79c-89 0 -133 -34 -145 -102l-46 -261c-2 -12 -3 -23 -3 -33c0 -47 27 -72 112 -72c91 0 133 37 145 104z" />
    <glyph glyph-name="R" unicode="R" horiz-adv-x="648" 
d="M437 0l-120 221h-125l-38 -221h-124l117 666h251c136 0 199 -53 199 -143c0 -13 -1 -24 -4 -41l-16 -90c-15 -85 -44 -129 -129 -155l127 -237h-138zM456 409l11 62c2 11 3 21 3 28c0 43 -26 58 -82 58h-137l-39 -229h139c76 0 95 25 105 81z" />
    <glyph glyph-name="S" unicode="S" horiz-adv-x="531" 
d="M217 -10c-56 0 -144 14 -199 41l27 96c64 -19 119 -32 181 -32c94 0 110 20 122 86c3 17 5 31 5 42c0 35 -22 43 -110 66c-116 29 -150 75 -150 146c0 20 3 42 7 66c25 140 70 175 245 175c59 0 123 -7 186 -26l-21 -103c-63 15 -120 23 -175 23c-87 0 -104 -12 -115 -77
c-3 -17 -5 -31 -5 -42c0 -33 22 -44 106 -66c120 -31 157 -66 157 -139c0 -19 -3 -40 -7 -65c-24 -135 -63 -191 -254 -191z" />
    <glyph glyph-name="T" unicode="T" horiz-adv-x="544" 
d="M387 557l-98 -557h-124l98 557h-187l19 109h498l-20 -109h-186z" />
    <glyph glyph-name="U" unicode="U" horiz-adv-x="631" 
d="M274 -10c-152 0 -218 75 -218 167c0 12 1 24 3 36l83 473h124l-81 -462c-2 -12 -3 -23 -3 -33c0 -47 25 -72 106 -72c98 0 129 43 140 106l81 461h124l-83 -474c-20 -113 -75 -202 -276 -202z" />
    <glyph glyph-name="V" unicode="V" horiz-adv-x="589" 
d="M346 0h-180l-80 666h123l64 -559l250 559h132z" />
    <glyph glyph-name="W" unicode="W" horiz-adv-x="940" 
d="M719 0h-157l-38 533l-221 -533h-157l-56 666h117l41 -526l221 526h152l36 -531l215 531h125z" />
    <glyph glyph-name="X" unicode="X" horiz-adv-x="616" 
d="M-13 0l269 346l-138 320h129l98 -234l173 234h141l-262 -335l150 -331h-131l-105 238l-182 -238h-142z" />
    <glyph glyph-name="Y" unicode="Y" horiz-adv-x="553" 
d="M329 193l-34 -193h-124l35 199l-130 467h123l89 -337l200 337h140z" />
    <glyph glyph-name="Z" unicode="Z" horiz-adv-x="571" 
d="M47 0l-2 102l374 458h-309l19 106h435l-1 -103l-376 -459h304l-19 -104h-425z" />
    <glyph glyph-name="bracketleft" unicode="[" horiz-adv-x="325" 
d="M18 -126l161 916h211l-17 -96h-91l-127 -724h90l-17 -96h-210z" />
    <glyph glyph-name="backslash" unicode="\" horiz-adv-x="466" 
d="M240 -117l-107 793h106l107 -793h-106z" />
    <glyph glyph-name="bracketright" unicode="]" horiz-adv-x="325" 
d="M334 790l-161 -916h-211l17 96h91l127 724h-90l17 96h210z" />
    <glyph glyph-name="asciicircum" unicode="^" horiz-adv-x="473" 
d="M387 372l-84 221l-154 -222l-69 51l190 264h87l111 -283z" />
    <glyph glyph-name="underscore" unicode="_" horiz-adv-x="439" 
d="M-1 -51v41h441v-41h-441z" />
    <glyph glyph-name="grave" unicode="`" horiz-adv-x="314" 
d="M252 543c-52 33 -90 63 -127 97l54 64c34 -34 72 -66 120 -103z" />
    <glyph glyph-name="a" unicode="a" horiz-adv-x="516" 
d="M488 466l-82 -466h-101l-1 54c-42 -38 -94 -64 -159 -64c-84 0 -113 45 -113 111c0 16 2 33 5 51l25 142c23 132 54 203 242 203c47 0 134 -15 184 -31zM315 164l40 225c-22 4 -44 7 -69 7c-77 0 -92 -32 -103 -96l-30 -171c-1 -6 -1 -9 -1 -12c0 -18 11 -26 33 -26
c38 0 93 36 130 73z" />
    <glyph glyph-name="b" unicode="b" horiz-adv-x="518" 
d="M29 22l117 664l123 17l-44 -249c54 30 105 43 154 43c84 0 113 -45 113 -111c0 -16 -2 -33 -5 -51l-25 -142c-26 -146 -76 -203 -251 -203c-45 0 -134 15 -182 32zM207 351l-45 -253c22 -4 46 -7 71 -7c77 0 97 32 108 96l30 171c1 6 1 9 1 12c0 18 -12 26 -34 26
c-38 0 -88 -17 -131 -45z" />
    <glyph glyph-name="c" unicode="c" horiz-adv-x="400" 
d="M400 477l-27 -96c-28 9 -67 14 -91 14c-70 0 -93 -20 -105 -88l-29 -165c-1 -6 -2 -12 -2 -17c0 -19 9 -32 37 -32c39 0 103 17 143 31l12 -97c-44 -21 -105 -37 -165 -37c-104 0 -147 43 -147 121c0 16 2 30 5 48l29 164c24 135 89 174 224 174c37 0 88 -9 116 -20z" />
    <glyph glyph-name="d" unicode="d" horiz-adv-x="528" 
d="M537 703l-124 -703h-102v54c-42 -38 -94 -64 -166 -64c-84 0 -113 45 -113 111c0 16 2 33 5 51l25 142c22 125 45 203 237 203c18 0 53 -3 80 -9l35 198zM322 164l40 226c-22 5 -54 6 -71 6c-77 0 -97 -31 -108 -95l-30 -172c-1 -6 -1 -9 -1 -12c0 -18 12 -26 34 -26
c51 0 110 41 136 73z" />
    <glyph glyph-name="e" unicode="e" horiz-adv-x="458" 
d="M154 165l-4 -23c-5 -28 -6 -52 38 -52c52 0 124 24 187 56l26 -92c-59 -36 -149 -64 -230 -64c-129 0 -155 72 -137 174l26 148c21 115 75 185 222 185c93 0 156 -48 156 -127c0 -87 -57 -137 -190 -178c-59 -18 -71 -21 -94 -27zM246 295c54 17 77 38 77 70
c0 22 -19 38 -51 38c-55 0 -82 -34 -90 -80l-9 -50c17 5 24 7 73 22z" />
    <glyph glyph-name="f" unicode="f" horiz-adv-x="355" 
d="M70 -207l-77 72c39 38 56 70 65 123l71 401h-75l17 98h75l13 75c18 103 59 144 168 144c38 0 83 -8 117 -21l-24 -93c-28 8 -60 14 -83 14c-38 0 -52 -11 -58 -44l-13 -75h132l-26 -98h-123l-73 -412c-14 -79 -43 -128 -106 -184z" />
    <glyph glyph-name="g" unicode="g" horiz-adv-x="523" 
d="M494 460l-94 -534c-19 -106 -70 -133 -181 -133c-47 0 -142 13 -218 38l23 89c61 -18 131 -33 192 -33c50 0 60 15 67 57l19 107c-54 -30 -105 -41 -154 -41c-84 0 -113 45 -113 111c0 16 2 33 5 51l22 122c27 152 66 203 241 203c63 0 141 -17 191 -37zM320 156l42 233
c-22 4 -46 7 -71 7c-77 0 -97 -32 -108 -96l-27 -151c-1 -6 -1 -9 -1 -12c0 -18 12 -26 34 -26c38 0 88 17 131 45z" />
    <glyph glyph-name="h" unicode="h" 
d="M310 0l61 347c1 5 1 11 1 13c0 13 -6 21 -25 21c-32 0 -98 -28 -145 -57l-57 -324h-120l121 686l123 17l-46 -261c60 32 131 55 185 55c67 0 89 -44 89 -97c0 -19 -2 -32 -5 -48l-62 -352h-120z" />
    <glyph glyph-name="i" unicode="i" horiz-adv-x="260" 
d="M122 549l24 137l123 17l-24 -136zM25 0l84 478l123 17l-87 -495h-120z" />
    <glyph glyph-name="j" unicode="j" horiz-adv-x="255" 
d="M232 495l-91 -518c-11 -63 -21 -92 -157 -184l-59 83c80 64 90 65 98 114l86 488zM122 549l24 137l123 17l-24 -136z" />
    <glyph glyph-name="k" unicode="k" horiz-adv-x="497" 
d="M308 0l-102 246l178 251l128 -21l-178 -231l101 -245h-127zM25 0l121 686l123 17l-124 -703h-120z" />
    <glyph glyph-name="l" unicode="l" horiz-adv-x="260" 
d="M25 0l121 686l123 17l-124 -703h-120z" />
    <glyph glyph-name="m" unicode="m" horiz-adv-x="825" 
d="M595 0l61 347c1 5 1 11 1 13c0 13 -6 21 -25 21c-32 0 -100 -30 -145 -57l-57 -324h-120l61 347c1 5 1 11 1 13c0 13 -6 21 -25 21c-32 0 -100 -30 -145 -57l-57 -324h-120l84 477l104 18l-2 -59c64 35 140 61 197 61c51 0 76 -26 85 -62c69 40 144 62 200 62
c67 0 89 -44 89 -97c0 -17 -2 -33 -5 -48l-62 -352h-120z" />
    <glyph glyph-name="n" unicode="n" 
d="M310 0l61 347c1 5 1 11 1 13c0 13 -6 21 -25 21c-32 0 -100 -30 -145 -57l-57 -324h-120l84 477l104 18l-2 -59c64 35 140 61 197 61c67 0 89 -44 89 -97c0 -19 -2 -32 -5 -48l-62 -352h-120z" />
    <glyph glyph-name="o" unicode="o" horiz-adv-x="521" 
d="M214 -10c-126 0 -181 73 -181 159c0 13 1 26 3 39l21 117c22 120 81 192 244 192c125 0 184 -70 184 -156c0 -12 -1 -23 -3 -35l-23 -130c-20 -114 -74 -186 -245 -186zM339 176l24 136c1 6 2 16 2 22c0 40 -25 62 -80 62c-63 0 -97 -29 -108 -89l-23 -131
c-1 -6 -2 -15 -2 -22c0 -39 22 -63 80 -63c63 0 97 28 107 85z" />
    <glyph glyph-name="p" unicode="p" horiz-adv-x="528" 
d="M-13 -214l124 701h102v-54c42 38 94 64 166 64c84 0 113 -45 113 -111c0 -16 -2 -33 -5 -51l-25 -142c-22 -125 -45 -203 -237 -203c-18 0 -53 3 -80 9l-35 -196zM202 323l-40 -226c22 -5 54 -6 71 -6c77 0 97 31 108 95l30 172c1 6 1 9 1 12c0 18 -12 26 -34 26
c-51 0 -110 -41 -136 -73z" />
    <glyph glyph-name="q" unicode="q" horiz-adv-x="528" 
d="M495 465l-117 -662l-123 -17l44 247c-54 -30 -105 -43 -154 -43c-84 0 -113 45 -113 111c0 16 2 33 5 51l25 142c26 146 76 203 251 203c45 0 134 -15 182 -32zM317 136l45 253c-22 4 -46 7 -71 7c-77 0 -97 -32 -108 -96l-30 -171c-1 -6 -1 -9 -1 -12
c0 -18 12 -26 34 -26c38 0 88 17 131 45z" />
    <glyph glyph-name="r" unicode="r" horiz-adv-x="325" 
d="M334 496l9 -109c-57 -31 -93 -54 -145 -87l-53 -300h-120l84 477l105 18l-5 -71c34 25 84 55 125 72z" />
    <glyph glyph-name="s" unicode="s" horiz-adv-x="414" 
d="M167 -10c-45 0 -112 13 -153 31l23 91c38 -13 87 -25 136 -25c53 0 64 9 70 43c5 30 0 41 -72 77c-103 51 -114 88 -101 162c17 98 56 128 184 128c46 0 106 -11 145 -24l-20 -92c-37 11 -92 19 -126 19c-48 0 -62 -2 -68 -37c-6 -33 3 -40 56 -69
c112 -61 132 -80 119 -157c-19 -109 -56 -147 -193 -147z" />
    <glyph glyph-name="t" unicode="t" horiz-adv-x="350" 
d="M157 -10c-76 0 -110 48 -98 118l50 283h-78l18 96h77l22 126l123 17l-25 -143h124l-19 -96h-122l-49 -278c-3 -17 2 -25 20 -25c24 0 56 11 84 22l26 -82c-41 -22 -95 -38 -153 -38z" />
    <glyph glyph-name="u" unicode="u" 
d="M227 495l-62 -355c-1 -7 -1 -11 -1 -13c0 -13 6 -21 25 -21c32 0 100 30 145 57l55 315l123 17l-87 -495h-102l2 51c-64 -35 -140 -61 -197 -61c-67 0 -89 44 -89 97c0 19 2 32 5 48l60 343z" />
    <glyph glyph-name="v" unicode="v" horiz-adv-x="476" 
d="M288 0h-165l-70 475l119 17l46 -386l115 259c11 26 14 47 14 67c0 16 -2 30 -7 46l117 17c6 -19 9 -43 9 -61c0 -24 -3 -58 -17 -87z" />
    <glyph glyph-name="w" unicode="w" horiz-adv-x="701" 
d="M310 473l107 17l74 -374s45 163 67 238c7 24 9 48 9 62c0 17 -2 35 -8 57l113 22c7 -28 10 -52 10 -77c0 -30 -8 -68 -26 -120c-29 -84 -102 -298 -102 -298h-146l-50 243l-128 -243h-139c-1 205 -5 322 -36 473l114 18c22 -105 28 -222 20 -365l138 267z" />
    <glyph glyph-name="x" unicode="x" horiz-adv-x="474" 
d="M-21 0l196 245l-105 229l112 21l73 -173l120 165h129l-199 -257l107 -230h-121l-67 141l-117 -141h-128z" />
    <glyph glyph-name="y" unicode="y" horiz-adv-x="476" 
d="M449 347l-161 -347c-56 -110 -99 -163 -246 -213l-33 93c84 29 117 60 155 120h-41l-70 475l119 17l46 -386l115 259c11 26 14 47 14 67c0 16 -2 30 -7 46l117 17c6 -19 9 -43 9 -61c0 -24 -4 -58 -17 -87z" />
    <glyph glyph-name="z" unicode="z" horiz-adv-x="461" 
d="M41 0l-4 93l254 299h-207l14 95h333l-1 -92l-255 -299h210l-16 -96h-328z" />
    <glyph glyph-name="braceleft" unicode="{" horiz-adv-x="339" 
d="M224 205l-37 -211c-1 -6 -1 -9 -1 -12c0 -20 13 -26 36 -26h49l-17 -98h-86c-75 0 -106 27 -106 88c0 15 2 31 5 50l42 236c5 29 -4 45 -35 45h-23l18 94h21c33 0 47 20 52 49l42 238c17 96 56 132 149 132h85l-17 -98h-51c-27 0 -42 -9 -47 -39l-37 -210
c-11 -61 -28 -110 -108 -119c74 -8 77 -58 66 -119z" />
    <glyph glyph-name="bar" unicode="|" horiz-adv-x="261" 
d="M110 -210v1000h81v-1000h-81z" />
    <glyph glyph-name="braceright" unicode="}" horiz-adv-x="340" 
d="M144 443l37 211c1 6 1 9 1 12c0 20 -13 26 -36 26h-49l17 98h86c75 0 106 -27 106 -88c0 -15 -2 -31 -5 -50l-42 -236c-5 -29 4 -45 35 -45h23l-18 -94h-21c-33 0 -47 -20 -52 -49l-42 -238c-17 -96 -56 -132 -149 -132h-85l17 98h51c27 0 42 9 47 39l37 210
c11 61 28 110 108 119c-74 8 -77 58 -66 119z" />
    <glyph glyph-name="asciitilde" unicode="~" horiz-adv-x="481" 
d="M331 193c-68 0 -112 68 -156 68c-38 0 -55 -26 -77 -68l-60 38c36 76 71 122 141 122c55 0 107 -69 154 -69c41 0 52 27 74 69l60 -38c-28 -68 -64 -122 -136 -122z" />
    <glyph glyph-name="Euro" unicode="&#x20ac;" horiz-adv-x="536" 
d="M53 364l12 68h82l6 30c25 142 104 194 266 194c41 0 87 -5 146 -23l-26 -101c-45 10 -89 17 -132 17c-87 0 -123 -19 -138 -105l-2 -12h189l-12 -68h-189l-14 -80h190l-12 -68h-190l-1 -6c-2 -12 -4 -27 -4 -41c0 -50 23 -72 104 -72c38 0 77 3 134 14l4 -101
c-49 -15 -103 -20 -159 -20c-143 0 -206 68 -206 161c0 17 2 31 4 42l4 23h-81l12 68h81l14 80h-82z" />
    <glyph glyph-name="quotesinglbase" unicode="&#x201a;" horiz-adv-x="271" 
d="M54 -139l-44 34l71 105h-46l26 146h120l-27 -155z" />
    <glyph glyph-name="florin" unicode="&#x192;" horiz-adv-x="484" 
d="M503 593c-22 7 -58 13 -79 13c-44 0 -56 -13 -66 -52l-34 -128h124l-26 -98h-124l-103 -390c-25 -94 -57 -135 -160 -135c-27 0 -70 8 -91 18l23 92c18 -6 37 -10 56 -10c38 0 47 11 56 49l100 376h-82l26 98h82l36 138c25 97 59 142 170 142c40 0 86 -10 115 -22z" />
    <glyph glyph-name="quotedblbase" unicode="&#x201e;" horiz-adv-x="473" 
d="M54 -139l-44 34l71 105h-46l26 146h120l-27 -155zM256 -139l-44 34l71 105h-46l26 146h120l-27 -155z" />
    <glyph glyph-name="ellipsis" unicode="&#x2026;" horiz-adv-x="831" 
d="M40 0l26 146h121l-26 -146h-121zM317 0l26 146h121l-26 -146h-121zM594 0l26 146h121l-26 -146h-121z" />
    <glyph glyph-name="dagger" unicode="&#x2020;" horiz-adv-x="481" 
d="M314 415l-86 -485h-90l85 485h-144l15 81h144l30 170h90l-29 -170h146l-15 -81h-146z" />
    <glyph glyph-name="daggerdbl" unicode="&#x2021;" horiz-adv-x="481" 
d="M258 100l-30 -170h-91l30 170h-144l15 82h144l41 233h-145l15 81h145l29 170h91l-30 -170h146l-15 -81h-146l-40 -233h146l-15 -82h-146z" />
    <glyph glyph-name="circumflex" unicode="&#x2c6;" horiz-adv-x="380" 
d="M346 536c-35 19 -66 42 -92 65c-34 -25 -62 -43 -104 -65l-35 58c49 29 95 58 154 103c35 -39 71 -73 116 -108z" />
    <glyph glyph-name="perthousand" unicode="&#x2030;" horiz-adv-x="1236" 
d="M663 637l-378 -647l-66 42l379 644zM389 454c-15 -86 -51 -142 -179 -142c-99 0 -131 48 -131 111c0 14 2 31 4 42l15 85c15 85 56 126 176 126c89 0 132 -43 132 -109c0 -11 -1 -21 -3 -33zM293 442l17 98c6 34 -5 56 -51 56s-62 -15 -68 -51l-17 -97
c-1 -6 -2 -14 -2 -18c0 -24 14 -38 52 -38c46 0 63 14 69 50zM792 132c-15 -86 -51 -142 -179 -142c-99 0 -131 48 -131 111c0 14 2 31 4 42l15 85c15 85 56 126 176 126c89 0 132 -43 132 -109c0 -11 -1 -21 -3 -33zM696 120l17 98c6 34 -5 56 -51 56s-62 -15 -68 -51
l-17 -97c-1 -6 -2 -14 -2 -18c0 -24 14 -38 52 -38c46 0 63 14 69 50zM1164 132c-15 -86 -51 -142 -179 -142c-99 0 -131 48 -131 111c0 14 2 31 4 42l15 85c15 85 56 126 176 126c89 0 132 -43 132 -109c0 -11 -1 -21 -3 -33zM1068 120l17 98c6 34 -5 56 -51 56
s-62 -15 -68 -51l-17 -97c-1 -6 -2 -14 -2 -18c0 -24 14 -38 52 -38c46 0 63 14 69 50z" />
    <glyph glyph-name="Scaron" unicode="&#x160;" horiz-adv-x="531" 
d="M217 -10c-56 0 -144 14 -199 41l27 96c64 -19 119 -32 181 -32c94 0 110 20 122 86c3 17 5 31 5 42c0 35 -22 43 -110 66c-116 29 -150 75 -150 146c0 20 3 42 7 66c25 140 70 175 245 175c59 0 123 -7 186 -26l-21 -103c-63 15 -120 23 -175 23c-87 0 -104 -12 -115 -77
c-3 -17 -5 -31 -5 -42c0 -33 22 -44 106 -66c120 -31 157 -66 157 -139c0 -19 -3 -40 -7 -65c-24 -135 -63 -191 -254 -191zM277 851c40 -20 57 -32 85 -52c28 21 56 37 88 52l34 -59c-51 -29 -87 -51 -137 -86c-27 28 -62 57 -109 91z" />
    <glyph glyph-name="guilsinglleft" unicode="&#x2039;" horiz-adv-x="283" 
d="M130 52l-94 192l155 192l74 -62l-112 -131l64 -148z" />
    <glyph glyph-name="OE" unicode="&#x152;" horiz-adv-x="883" 
d="M266 0c-152 0 -218 68 -218 165c0 14 1 29 4 44l45 257c23 131 97 200 280 200h528l-20 -109h-284l-28 -159h263l-19 -109h-263l-32 -180h284l-18 -109h-522zM286 109h112l79 448h-113c-89 0 -133 -34 -145 -102l-42 -241c-2 -12 -3 -23 -3 -33c0 -47 27 -72 112 -72z
" />
    <glyph glyph-name="quoteleft" unicode="&#x2018;" horiz-adv-x="271" 
d="M232 703l44 -34l-71 -105h46l-26 -146h-120l27 155z" />
    <glyph glyph-name="quoteright" unicode="&#x2019;" horiz-adv-x="261" 
d="M149 401l-44 34l71 105h-46l26 146h120l-27 -155z" />
    <glyph glyph-name="quotedblleft" unicode="&#x201c;" horiz-adv-x="473" 
d="M434 703l44 -34l-71 -105h46l-26 -146h-120l27 155zM232 703l44 -34l-71 -105h46l-26 -146h-120l27 155z" />
    <glyph glyph-name="quotedblright" unicode="&#x201d;" horiz-adv-x="473" 
d="M149 401l-44 34l71 105h-46l26 146h120l-27 -155zM351 401l-44 34l71 105h-46l26 146h120l-27 -155z" />
    <glyph glyph-name="bullet" unicode="&#x2022;" horiz-adv-x="357" 
d="M189 194c-70 0 -128 58 -128 129c0 72 58 130 128 130c71 0 128 -58 128 -130c0 -71 -57 -129 -128 -129z" />
    <glyph glyph-name="endash" unicode="&#x2013;" horiz-adv-x="486" 
d="M66 231l18 100h366l-18 -100h-366z" />
    <glyph glyph-name="emdash" unicode="&#x2014;" horiz-adv-x="631" 
d="M66 231l18 100h511l-18 -100h-511z" />
    <glyph glyph-name="tilde" unicode="&#x2dc;" horiz-adv-x="427" 
d="M326 549c-53 0 -73 42 -109 42c-26 0 -45 -24 -58 -42l-44 41c25 45 62 77 108 77s78 -43 111 -43c23 0 34 12 47 37l51 -28c-22 -48 -48 -84 -106 -84z" />
    <glyph glyph-name="trademark" unicode="&#x2122;" horiz-adv-x="494" 
d="M459 462l-2 127l-38 -101h-42l-38 99l-2 -125h-40l8 204h43l50 -135l50 135h43l8 -204h-40zM166 462v166h-56v38h154v-38h-57v-166h-41z" />
    <glyph glyph-name="scaron" unicode="&#x161;" horiz-adv-x="414" 
d="M167 -10c-45 0 -112 13 -153 31l23 91c38 -13 87 -25 136 -25c53 0 64 9 70 43c5 30 0 41 -72 77c-103 51 -114 88 -101 162c17 98 56 128 184 128c46 0 106 -11 145 -24l-20 -92c-37 11 -92 19 -126 19c-48 0 -62 -2 -68 -37c-6 -33 3 -40 56 -69
c112 -61 132 -80 119 -157c-19 -109 -56 -147 -193 -147zM189 693c36 -19 67 -42 93 -65c34 25 61 42 104 65l35 -58c-51 -31 -93 -58 -155 -103c-34 39 -71 73 -115 108z" />
    <glyph glyph-name="guilsinglright" unicode="&#x203a;" horiz-adv-x="283" 
d="M159 436l94 -192l-155 -192l-74 62l112 131l-64 148z" />
    <glyph glyph-name="oe" unicode="&#x153;" horiz-adv-x="759" 
d="M457 165l-4 -23c-5 -28 -6 -52 38 -52c52 0 124 24 187 56l26 -92c-59 -36 -122 -64 -212 -64c-58 0 -100 21 -127 52c-42 -34 -91 -52 -151 -52c-126 0 -181 73 -181 159c0 13 1 26 3 39l21 117c22 120 83 192 230 192c68 0 118 -29 143 -57c43 38 88 57 155 57
c93 0 154 -48 154 -127c0 -87 -55 -137 -188 -178c-59 -18 -71 -21 -94 -27zM339 176l24 136c1 6 2 16 2 22c0 40 -25 62 -80 62c-63 0 -97 -29 -108 -89l-23 -131c-1 -6 -2 -15 -2 -22c0 -39 22 -63 80 -63c63 0 97 28 107 85zM549 295c54 17 75 38 75 70
c0 24 -19 38 -49 38c-55 0 -82 -34 -90 -80l-9 -50c17 5 24 7 73 22z" />
    <glyph glyph-name="Ydieresis" unicode="&#x178;" horiz-adv-x="553" 
d="M329 193l-34 -193h-124l35 199l-130 467h123l89 -337l200 337h140zM410 729l17 97h101l-17 -97h-101zM201 729l17 97h101l-17 -97h-101z" />
    <glyph glyph-name="uni00A0" unicode="&#xa0;" horiz-adv-x="210" 
 />
    <glyph glyph-name="exclamdown" unicode="&#xa1;" horiz-adv-x="279" 
d="M108 272h69l-5 -172l-52 -297h-120l52 297zM242 487l-26 -146h-121l26 146h121z" />
    <glyph glyph-name="cent" unicode="&#xa2;" horiz-adv-x="430" 
d="M144 -10l16 92c-78 9 -111 50 -111 119c0 16 2 30 5 48l29 164c20 113 69 159 165 170l17 93h81l-16 -90c33 -3 70 -10 93 -19l-27 -96c-28 9 -67 14 -91 14c-70 0 -93 -20 -105 -88l-29 -165c-1 -6 -2 -12 -2 -17c0 -19 9 -32 37 -32c39 0 103 17 143 31l12 -97
c-33 -16 -76 -29 -120 -34l-16 -93h-81z" />
    <glyph glyph-name="sterling" unicode="&#xa3;" horiz-adv-x="535" 
d="M28 0l17 101c75 42 131 96 131 174c0 3 0 9 -1 14h-109l12 88h79c-15 32 -21 72 -21 104c0 116 64 175 211 175c51 0 117 -9 168 -23l-18 -94c-42 10 -98 17 -144 17c-71 0 -99 -17 -99 -84c0 -27 8 -65 19 -95h180l-14 -88h-156c1 -7 2 -17 2 -25
c0 -64 -32 -118 -92 -164h271l-18 -100h-418z" />
    <glyph glyph-name="currency" unicode="&#xa4;" horiz-adv-x="550" 
d="M531 528l-62 -68c4 -11 5 -20 5 -31c0 -6 -1 -15 -3 -27l-24 -135c-4 -23 -8 -43 -22 -64l52 -63l-75 -64l-56 69c-25 -8 -56 -12 -93 -12c-26 0 -48 3 -66 9l-58 -65l-73 65l55 60c-4 12 -6 24 -6 38c0 5 0 21 2 32l23 131c5 26 12 49 26 67l-49 60l75 64l55 -68
c24 7 53 11 87 11c29 0 53 -4 73 -11l61 67zM230 390l-19 -112c-1 -7 -2 -11 -2 -18c0 -29 20 -35 61 -35c45 0 69 7 77 52l20 113c1 7 1 13 1 17c0 31 -23 38 -60 38c-45 0 -70 -11 -78 -55z" />
    <glyph glyph-name="yen" unicode="&#xa5;" horiz-adv-x="554" 
d="M61 295l14 77h80l-76 274h123l84 -317l187 317h140l-173 -274h90l-14 -77h-125l-60 -95h169l-14 -77h-172l-21 -123h-124l21 123h-159l14 77h158l-26 95h-116z" />
    <glyph glyph-name="brokenbar" unicode="&#xa6;" horiz-adv-x="261" 
d="M110 375v415h81v-415h-81zM110 -210v415h81v-415h-81z" />
    <glyph glyph-name="section" unicode="&#xa7;" horiz-adv-x="542" 
d="M406 568c-43 12 -98 23 -141 23c-38 0 -54 -13 -60 -48c-8 -43 -11 -94 -11 -151c0 -118 13 -242 35 -376l-95 -16c-25 134 -39 266 -39 392c0 62 3 120 12 168c13 76 48 116 160 116c56 0 120 -13 159 -28zM143 -79c43 -12 98 -23 141 -23c38 0 54 13 60 48
c8 43 11 94 11 151c0 118 -13 242 -35 376l95 16c25 -134 39 -266 39 -392c0 -62 -3 -120 -12 -168c-13 -76 -48 -116 -160 -116c-56 0 -120 13 -159 28z" />
    <glyph glyph-name="dieresis" unicode="&#xa8;" horiz-adv-x="422" 
d="M120 557l19 105l98 4l-18 -105zM310 557l19 105l98 4l-18 -105z" />
    <glyph glyph-name="copyright" unicode="&#xa9;" horiz-adv-x="787" 
d="M414 -10c-209 0 -342 154 -342 343c0 190 133 343 342 343c208 0 341 -153 341 -343c0 -189 -133 -343 -341 -343zM414 598c-159 0 -260 -116 -260 -265c0 -148 101 -264 260 -264c158 0 260 116 260 264c0 149 -102 265 -260 265zM421 161c-104 0 -139 39 -139 118v111
c0 79 35 118 139 118c33 0 72 -8 97 -17l-13 -67c-30 8 -53 11 -78 11c-46 0 -58 -12 -58 -47v-107c0 -35 12 -47 58 -47c25 0 48 3 78 11l13 -67c-25 -9 -64 -17 -97 -17z" />
    <glyph glyph-name="ordfeminine" unicode="&#xaa;" horiz-adv-x="382" 
d="M382 676l-51 -293h-64l-1 34c-26 -24 -58 -41 -100 -41c-53 0 -71 29 -71 70c0 9 1 21 3 33l16 89c14 83 34 128 152 128c37 0 85 -9 116 -20zM273 486l26 142c-14 2 -28 4 -44 4c-48 0 -58 -20 -65 -60l-19 -107c-3 -16 1 -25 20 -25c24 0 59 23 82 46z" />
    <glyph glyph-name="guillemotleft" unicode="&#xab;" horiz-adv-x="500" 
d="M130 52l-94 192l155 192l74 -62l-112 -131l64 -148zM347 52l-94 192l155 192l74 -62l-112 -131l64 -148z" />
    <glyph glyph-name="logicalnot" unicode="&#xac;" horiz-adv-x="538" 
d="M364 88v161h-304v94h403v-255h-99z" />
    <glyph glyph-name="minus" unicode="&#x2212;" horiz-adv-x="378" 
d="M55 189v102h288v-102h-288z" />
    <glyph glyph-name="registered" unicode="&#xae;" horiz-adv-x="447" 
d="M278 333c-109 0 -178 82 -178 182c0 101 69 181 178 181c110 0 179 -80 179 -181c0 -100 -69 -182 -179 -182zM278 649c-87 0 -129 -61 -129 -134s42 -134 129 -134s130 61 130 134s-43 134 -130 134zM320 437l-39 55h-28v-55h-32v164h66c36 0 52 -16 52 -46v-17
c0 -20 -8 -33 -24 -40l42 -61h-37zM307 554c0 14 -8 17 -23 17h-31v-50h32c16 0 22 6 22 18v15z" />
    <glyph glyph-name="macron" unicode="&#xaf;" horiz-adv-x="370" 
d="M115 548l14 80h246l-14 -80h-246z" />
    <glyph glyph-name="degree" unicode="&#xb0;" horiz-adv-x="354" 
d="M203 403c-68 0 -108 43 -108 100c0 86 49 153 150 153c70 0 109 -45 109 -101c0 -82 -51 -152 -151 -152zM237 600c-49 0 -78 -36 -78 -87c0 -30 13 -54 53 -54c52 0 77 43 77 87c0 31 -16 54 -52 54z" />
    <glyph glyph-name="plusminus" unicode="&#xb1;" horiz-adv-x="528" 
d="M65 0v89h403v-89h-403zM315 305v-156h-97v156h-153v94h153v157h97v-157h153v-94h-153z" />
    <glyph glyph-name="twosuperior" unicode="&#xb2;" horiz-adv-x="403" 
d="M78 245l11 67c42 38 51 46 108 99c71 66 86 84 91 112l1 6c1 7 2 13 2 19c0 17 -8 26 -36 28c-35 0 -69 -4 -107 -14l-13 74c43 13 82 20 125 20c83 0 121 -41 121 -96c0 -8 -1 -20 -2 -26l-3 -17c-6 -34 -17 -55 -56 -95c-56 -58 -74 -76 -101 -102h129l-12 -75h-258z
" />
    <glyph glyph-name="threesuperior" unicode="&#xb3;" horiz-adv-x="388" 
d="M196 237c-32 0 -80 8 -116 20l16 65c37 -9 67 -14 105 -14s50 9 54 35l7 36c1 6 1 8 1 10c0 18 -12 24 -36 24h-98l12 67h92c32 0 42 15 46 36l5 31c1 6 1 10 1 13c0 19 -12 25 -48 25c-22 0 -61 -2 -86 -7l-4 66c30 7 75 12 106 12c88 0 120 -27 120 -77
c0 -7 -1 -15 -2 -24l-5 -30c-7 -42 -18 -60 -61 -76c31 -12 42 -31 42 -57c0 -8 -1 -16 -3 -26l-4 -27c-14 -77 -42 -102 -144 -102z" />
    <glyph glyph-name="acute" unicode="&#xb4;" horiz-adv-x="303" 
d="M152 543l-37 65c54 28 102 58 158 97l40 -72c-56 -38 -98 -60 -161 -90z" />
    <glyph glyph-name="mu" unicode="&#xb5;" 
d="M-15 -197l119 675l123 17l-62 -355c-1 -7 -1 -11 -1 -13c0 -13 6 -21 25 -21c32 0 100 30 145 57l55 315l123 17l-87 -495h-102l2 51c-61 -33 -132 -58 -187 -61l-33 -187h-120z" />
    <glyph glyph-name="paragraph" unicode="&#xb6;" horiz-adv-x="523" 
d="M84 406c0 159 105 260 259 260l-77 -436c-112 0 -182 74 -182 176zM207 -207l-49 67c124 102 137 111 144 151l116 655h93l-116 -655c-15 -84 -20 -87 -188 -218z" />
    <glyph glyph-name="periodcentered" unicode="&#xb7;" horiz-adv-x="272" 
d="M75 260l26 146h121l-26 -146h-121z" />
    <glyph glyph-name="cedilla" unicode="&#xb8;" horiz-adv-x="289" 
d="M62 -200c-21 0 -52 7 -72 15l15 48c16 -5 38 -10 58 -10c40 0 57 13 57 34c0 13 -10 20 -29 20c-12 0 -27 0 -49 -2l-14 16l36 94h54l-24 -70c12 2 23 3 32 3c39 0 58 -27 58 -56c0 -60 -39 -92 -122 -92z" />
    <glyph glyph-name="onesuperior" unicode="&#xb9;" horiz-adv-x="348" 
d="M158 243l54 302l-84 -35l-26 65l146 71h69l-71 -403h-88z" />
    <glyph glyph-name="ordmasculine" unicode="&#xba;" horiz-adv-x="385" 
d="M209 376c-82 0 -114 46 -114 101c0 8 1 16 3 27l12 71c13 76 51 121 154 121c79 0 116 -44 116 -98c0 -9 -1 -15 -2 -22l-14 -82c-13 -72 -47 -118 -155 -118zM288 494l15 85c1 6 1 10 1 14c0 25 -15 39 -50 39c-40 0 -61 -18 -68 -56l-15 -82c-6 -34 6 -54 50 -54
c39 0 61 18 67 54z" />
    <glyph glyph-name="guillemotright" unicode="&#xbb;" horiz-adv-x="500" 
d="M376 436l94 -192l-155 -192l-74 62l112 131l-64 148zM159 436l94 -192l-155 -192l-74 62l112 131l-64 148z" />
    <glyph glyph-name="onequarter" unicode="&#xbc;" horiz-adv-x="859" 
d="M708 81l-14 -81h-83l14 81h-181l7 65l191 257h123l-45 -253h58l-11 -69h-59zM670 336l-131 -186h98zM235 -46l-57 36l421 699l57 -34zM163 243l54 302l-84 -35l-26 65l146 71h69l-71 -403h-88z" />
    <glyph glyph-name="onehalf" unicode="&#xbd;" horiz-adv-x="883" 
d="M503 0l11 67c42 38 51 46 108 99c71 66 86 84 91 112l1 6c1 7 2 13 2 19c0 17 -8 26 -36 28c-35 0 -69 -4 -107 -14l-13 74c43 13 82 20 125 20c83 0 121 -41 121 -96c0 -8 -1 -20 -2 -26l-3 -17c-6 -34 -17 -55 -56 -95c-56 -58 -74 -76 -101 -102h129l-12 -75h-258z
M232 -46l-57 36l421 699l57 -34zM163 243l54 302l-84 -35l-26 65l146 71h69l-71 -403h-88z" />
    <glyph glyph-name="threequarters" unicode="&#xbe;" horiz-adv-x="892" 
d="M191 237c-32 0 -80 8 -116 20l16 65c37 -9 67 -14 105 -14c39 0 50 7 54 33l7 39c1 5 1 8 1 10c0 16 -11 23 -36 23h-98l12 67h92c32 0 42 15 46 36l6 34c1 5 1 10 1 11c0 19 -14 24 -49 24c-22 0 -57 -2 -86 -7l-4 66c26 7 75 12 106 12c87 0 120 -24 120 -75
c0 -9 -1 -19 -2 -25l-6 -34c-8 -44 -17 -61 -60 -73c32 -12 43 -31 43 -56c0 -8 -2 -18 -3 -24l-6 -34c-14 -77 -41 -98 -143 -98zM741 81l-14 -81h-83l14 81h-181l7 65l191 257h123l-45 -253h58l-11 -69h-59zM703 336l-131 -186h98zM268 -46l-57 36l421 699l57 -34z" />
    <glyph glyph-name="questiondown" unicode="&#xbf;" horiz-adv-x="492" 
d="M270 258l60 -91c-50 -34 -87 -60 -121 -85c-52 -39 -55 -47 -64 -98c-2 -14 -4 -25 -4 -35c0 -35 20 -50 92 -50c41 0 100 8 143 17l12 -103c-52 -12 -124 -20 -181 -20c-135 0 -187 47 -187 134c0 16 2 33 5 52c16 89 25 128 106 184c56 39 76 53 139 95zM392 487
l-26 -146h-121l26 146h121z" />
    <glyph glyph-name="Agrave" unicode="&#xc0;" horiz-adv-x="647" 
d="M451 0l-18 142h-247l-67 -142h-134l327 666h168l100 -666h-129zM384 567l-150 -321h186zM404 711c-50 29 -85 58 -116 85l53 64c34 -33 62 -55 109 -90z" />
    <glyph glyph-name="Aacute" unicode="&#xc1;" horiz-adv-x="647" 
d="M451 0l-18 142h-247l-67 -142h-134l327 666h168l100 -666h-129zM384 567l-150 -321h186zM397 710l-37 65c50 29 82 48 133 85l41 -72c-44 -31 -83 -54 -137 -78z" />
    <glyph glyph-name="Acircumflex" unicode="&#xc2;" horiz-adv-x="647" 
d="M451 0l-18 142h-247l-67 -142h-134l327 666h168l100 -666h-129zM384 567l-150 -321h186zM494 711c-40 20 -57 32 -85 52c-28 -20 -56 -37 -88 -52l-34 59c51 29 87 51 137 86c27 -28 62 -57 109 -91z" />
    <glyph glyph-name="Atilde" unicode="&#xc3;" horiz-adv-x="647" 
d="M451 0l-18 142h-247l-67 -142h-134l327 666h168l100 -666h-129zM384 567l-150 -321h186zM463 719c-52 0 -72 42 -108 42c-24 0 -43 -24 -58 -42l-44 41c24 45 62 77 108 77s78 -43 111 -43c22 0 34 12 47 37l51 -28c-22 -48 -49 -84 -107 -84z" />
    <glyph glyph-name="Adieresis" unicode="&#xc4;" horiz-adv-x="648" 
d="M451 0l-18 142h-247l-67 -142h-134l327 666h168l100 -666h-129zM384 567l-150 -321h186zM463 729l17 97h101l-17 -97h-101zM254 729l17 97h101l-17 -97h-101z" />
    <glyph glyph-name="Aring" unicode="&#xc5;" horiz-adv-x="647" 
d="M451 0l-18 142h-247l-67 -142h-134l327 666h168l100 -666h-129zM384 567l-150 -321h186zM402 709c-41 0 -70 26 -70 64c0 58 35 93 96 93c45 0 72 -27 72 -61c0 -52 -28 -96 -98 -96zM422 823c-24 0 -40 -17 -40 -45c0 -15 8 -26 27 -26c26 0 40 18 40 45
c0 16 -9 26 -27 26z" />
    <glyph glyph-name="AE" unicode="&#xc6;" horiz-adv-x="860" 
d="M451 0l-18 142h-247l-67 -142h-134l327 666h570l-20 -109h-366l24 -159h293l-19 -109h-258l27 -180h220l-18 -109h-314zM384 567l-150 -321h186z" />
    <glyph glyph-name="Ccedilla" unicode="&#xc7;" horiz-adv-x="522" 
d="M225 -200c-20 0 -51 7 -72 15l15 48c17 -5 39 -10 59 -10c40 0 56 13 56 34c0 13 -8 20 -26 20c-12 0 -29 0 -52 -2l-13 16l26 71c-120 9 -173 71 -173 156c0 12 1 26 4 43l52 291c24 135 103 194 265 194c62 0 122 -10 183 -26l-28 -107c-53 11 -121 21 -167 21
c-84 0 -119 -28 -133 -108l-44 -247c-2 -12 -3 -26 -3 -34c0 -52 30 -72 98 -72c47 0 111 6 168 17l5 -106c-48 -13 -112 -22 -172 -23l-16 -46c13 2 23 3 33 3c39 0 57 -27 57 -56c0 -60 -39 -92 -122 -92z" />
    <glyph glyph-name="Egrave" unicode="&#xc8;" horiz-adv-x="534" 
d="M30 0l117 666h409l-20 -109h-284l-28 -159h263l-19 -109h-263l-32 -180h284l-18 -109h-409zM374 711c-50 29 -85 58 -116 85l53 64c34 -33 62 -55 109 -90z" />
    <glyph glyph-name="Eacute" unicode="&#xc9;" horiz-adv-x="534" 
d="M30 0l117 666h409l-20 -109h-284l-28 -159h263l-19 -109h-263l-32 -180h284l-18 -109h-409zM328 710l-37 65c50 29 82 48 133 85l41 -72c-44 -31 -83 -54 -137 -78z" />
    <glyph glyph-name="Ecircumflex" unicode="&#xca;" horiz-adv-x="534" 
d="M30 0l117 666h409l-20 -109h-284l-28 -159h263l-19 -109h-263l-32 -180h284l-18 -109h-409zM451 711c-40 20 -57 32 -85 52c-28 -20 -56 -37 -88 -52l-34 59c51 29 87 51 137 86c27 -28 62 -57 109 -91z" />
    <glyph glyph-name="Edieresis" unicode="&#xcb;" horiz-adv-x="534" 
d="M30 0l117 666h409l-20 -109h-284l-28 -159h263l-19 -109h-263l-32 -180h284l-18 -109h-409zM418 729l17 97h101l-17 -97h-101zM209 729l17 97h101l-17 -97h-101z" />
    <glyph glyph-name="Igrave" unicode="&#xcc;" horiz-adv-x="284" 
d="M35 0l117 666h124l-117 -666h-124zM229 711c-50 29 -85 58 -116 85l53 64c34 -33 62 -55 109 -90z" />
    <glyph glyph-name="Iacute" unicode="&#xcd;" horiz-adv-x="284" 
d="M35 0l117 666h124l-117 -666h-124zM218 710l-37 65c50 29 82 48 133 85l41 -72c-44 -31 -83 -54 -137 -78z" />
    <glyph glyph-name="Icircumflex" unicode="&#xce;" horiz-adv-x="284" 
d="M35 0l117 666h124l-117 -666h-124zM311 711c-40 20 -57 32 -85 52c-28 -20 -56 -37 -88 -52l-34 59c51 29 87 51 137 86c27 -28 62 -57 109 -91z" />
    <glyph glyph-name="Idieresis" unicode="&#xcf;" horiz-adv-x="284" 
d="M35 0l117 666h124l-117 -666h-124zM284 729l17 97h101l-17 -97h-101zM75 729l17 97h101l-17 -97h-101z" />
    <glyph glyph-name="Eth" unicode="&#xd0;" horiz-adv-x="639" 
d="M50 287l17 99h66l50 280h244c140 0 193 -74 193 -159c0 -14 -1 -26 -4 -42l-51 -289c-18 -102 -65 -176 -240 -176h-260l51 287h-66zM447 210l44 250c2 11 3 22 3 30c0 43 -23 67 -95 67h-112l-30 -171h109l-17 -99h-110l-31 -178h118c87 0 109 33 121 101z" />
    <glyph glyph-name="Ntilde" unicode="&#xd1;" horiz-adv-x="679" 
d="M403 0l-165 494l-87 -494h-121l117 666h155l165 -507l89 507h120l-117 -666h-156zM484 719c-52 0 -72 42 -108 42c-24 0 -43 -24 -58 -42l-44 41c24 45 62 77 108 77s78 -43 111 -43c22 0 34 12 47 37l51 -28c-22 -48 -49 -84 -107 -84z" />
    <glyph glyph-name="Ograve" unicode="&#xd2;" horiz-adv-x="622" 
d="M264 -10c-152 0 -218 68 -218 165c0 14 1 29 4 44l49 277c23 131 97 200 280 200c152 0 223 -78 223 -176c0 -12 -1 -23 -3 -35l-48 -272c-24 -135 -94 -203 -287 -203zM429 203l46 262c1 8 2 16 2 23c0 50 -29 79 -111 79c-89 0 -133 -34 -145 -102l-46 -261
c-2 -12 -3 -23 -3 -33c0 -47 27 -72 112 -72c91 0 133 37 145 104zM386 711c-50 29 -85 58 -116 85l53 64c34 -33 62 -55 109 -90z" />
    <glyph glyph-name="Oacute" unicode="&#xd3;" horiz-adv-x="622" 
d="M264 -10c-152 0 -218 68 -218 165c0 14 1 29 4 44l49 277c23 131 97 200 280 200c152 0 223 -78 223 -176c0 -12 -1 -23 -3 -35l-48 -272c-24 -135 -94 -203 -287 -203zM429 203l46 262c1 8 2 16 2 23c0 50 -29 79 -111 79c-89 0 -133 -34 -145 -102l-46 -261
c-2 -12 -3 -23 -3 -33c0 -47 27 -72 112 -72c91 0 133 37 145 104zM368 710l-37 65c50 29 82 48 133 85l41 -72c-44 -31 -83 -54 -137 -78z" />
    <glyph glyph-name="Ocircumflex" unicode="&#xd4;" horiz-adv-x="622" 
d="M264 -10c-152 0 -218 68 -218 165c0 14 1 29 4 44l49 277c23 131 97 200 280 200c152 0 223 -78 223 -176c0 -12 -1 -23 -3 -35l-48 -272c-24 -135 -94 -203 -287 -203zM429 203l46 262c1 8 2 16 2 23c0 50 -29 79 -111 79c-89 0 -133 -34 -145 -102l-46 -261
c-2 -12 -3 -23 -3 -33c0 -47 27 -72 112 -72c91 0 133 37 145 104zM479 711c-40 20 -57 32 -85 52c-28 -20 -56 -37 -88 -52l-34 59c51 29 87 51 137 86c27 -28 62 -57 109 -91z" />
    <glyph glyph-name="Otilde" unicode="&#xd5;" horiz-adv-x="622" 
d="M264 -10c-152 0 -218 68 -218 165c0 14 1 29 4 44l49 277c23 131 97 200 280 200c152 0 223 -78 223 -176c0 -12 -1 -23 -3 -35l-48 -272c-24 -135 -94 -203 -287 -203zM429 203l46 262c1 8 2 16 2 23c0 50 -29 79 -111 79c-89 0 -133 -34 -145 -102l-46 -261
c-2 -12 -3 -23 -3 -33c0 -47 27 -72 112 -72c91 0 133 37 145 104zM440 719c-52 0 -72 42 -108 42c-24 0 -43 -24 -58 -42l-44 41c24 45 62 77 108 77s78 -43 111 -43c22 0 34 12 47 37l51 -28c-22 -48 -49 -84 -107 -84z" />
    <glyph glyph-name="Odieresis" unicode="&#xd6;" horiz-adv-x="622" 
d="M264 -10c-152 0 -218 68 -218 165c0 14 1 29 4 44l49 277c23 131 97 200 280 200c152 0 223 -78 223 -176c0 -12 -1 -23 -3 -35l-48 -272c-24 -135 -94 -203 -287 -203zM429 203l46 262c1 8 2 16 2 23c0 50 -29 79 -111 79c-89 0 -133 -34 -145 -102l-46 -261
c-2 -12 -3 -23 -3 -33c0 -47 27 -72 112 -72c91 0 133 37 145 104zM451 729l17 97h101l-17 -97h-101zM242 729l17 97h101l-17 -97h-101z" />
    <glyph glyph-name="multiply" unicode="&#xd7;" horiz-adv-x="492" 
d="M365 53l-116 118l-117 -118l-68 69l116 118l-116 117l68 69l117 -117l116 117l68 -69l-116 -117l116 -118z" />
    <glyph glyph-name="Oslash" unicode="&#xd8;" horiz-adv-x="622" 
d="M14 -27l64 83c-22 27 -32 60 -32 99c0 14 1 29 4 44l49 277c23 131 97 200 280 200c63 0 112 -14 148 -37l67 87l43 -33l-69 -90c23 -29 34 -64 34 -103c0 -12 -1 -23 -3 -35l-48 -272c-24 -135 -94 -203 -287 -203c-62 0 -110 11 -144 31l-62 -81zM175 204
c-2 -10 -3 -18 -3 -26l282 366c-17 15 -45 23 -88 23c-89 0 -133 -34 -145 -102zM429 203l46 262c1 7 2 13 2 20l-282 -367c17 -13 45 -19 89 -19c91 0 133 37 145 104z" />
    <glyph glyph-name="Ugrave" unicode="&#xd9;" horiz-adv-x="631" 
d="M274 -10c-152 0 -218 75 -218 167c0 12 1 24 3 36l83 473h124l-81 -462c-2 -12 -3 -23 -3 -33c0 -47 25 -72 106 -72c98 0 129 43 140 106l81 461h124l-83 -474c-20 -113 -75 -202 -276 -202zM413 711c-50 29 -85 58 -116 85l53 64c34 -33 62 -55 109 -90z" />
    <glyph glyph-name="Uacute" unicode="&#xda;" horiz-adv-x="631" 
d="M274 -10c-152 0 -218 75 -218 167c0 12 1 24 3 36l83 473h124l-81 -462c-2 -12 -3 -23 -3 -33c0 -47 25 -72 106 -72c98 0 129 43 140 106l81 461h124l-83 -474c-20 -113 -75 -202 -276 -202zM367 710l-37 65c50 29 82 48 133 85l41 -72c-44 -31 -83 -54 -137 -78z" />
    <glyph glyph-name="Ucircumflex" unicode="&#xdb;" horiz-adv-x="631" 
d="M274 -10c-152 0 -218 75 -218 167c0 12 1 24 3 36l83 473h124l-81 -462c-2 -12 -3 -23 -3 -33c0 -47 25 -72 106 -72c98 0 129 43 140 106l81 461h124l-83 -474c-20 -113 -75 -202 -276 -202zM490 711c-40 20 -57 32 -85 52c-28 -20 -56 -37 -88 -52l-34 59
c51 29 87 51 137 86c27 -28 62 -57 109 -91z" />
    <glyph glyph-name="Udieresis" unicode="&#xdc;" horiz-adv-x="631" 
d="M274 -10c-152 0 -218 75 -218 167c0 12 1 24 3 36l83 473h124l-81 -462c-2 -12 -3 -23 -3 -33c0 -47 25 -72 106 -72c98 0 129 43 140 106l81 461h124l-83 -474c-20 -113 -75 -202 -276 -202zM455 729l17 97h101l-17 -97h-101zM246 729l17 97h101l-17 -97h-101z" />
    <glyph glyph-name="Yacute" unicode="&#xdd;" horiz-adv-x="553" 
d="M329 193l-34 -193h-124l35 199l-130 467h123l89 -337l200 337h140zM335 710l-37 65c50 29 82 48 133 85l41 -72c-44 -31 -83 -54 -137 -78z" />
    <glyph glyph-name="Thorn" unicode="&#xde;" horiz-adv-x="578" 
d="M153 0h-123l117 666h124l-20 -111h123c137 0 196 -53 196 -143c0 -13 -1 -30 -4 -46l-15 -85c-19 -111 -63 -175 -234 -175h-145zM429 292l12 68c2 11 3 21 3 28c0 38 -20 58 -76 58h-136l-41 -233h134c74 0 94 23 104 79z" />
    <glyph glyph-name="germandbls" unicode="&#xdf;" horiz-adv-x="591" 
d="M24 -8l93 531c22 124 77 183 229 183c119 0 186 -55 186 -133c0 -51 -17 -94 -61 -153s-54 -71 -54 -90c0 -12 4 -25 49 -66c52 -48 66 -71 66 -100c0 -107 -39 -174 -176 -174c-29 0 -80 6 -115 17l19 90c28 -7 70 -11 92 -11c42 0 62 9 62 52c0 14 -9 21 -59 68
c-46 43 -60 71 -60 98c0 43 10 70 55 128c50 64 61 89 61 123c0 33 -22 51 -74 51c-66 0 -90 -23 -101 -87l-95 -540c-13 -75 -36 -119 -107 -186l-76 72c47 46 56 72 66 127z" />
    <glyph glyph-name="agrave" unicode="&#xe0;" horiz-adv-x="516" 
d="M488 466l-82 -466h-101l-1 54c-42 -38 -94 -64 -159 -64c-84 0 -113 45 -113 111c0 16 2 33 5 51l25 142c23 132 54 203 242 203c47 0 134 -15 184 -31zM315 164l40 225c-22 4 -44 7 -69 7c-77 0 -92 -32 -103 -96l-30 -171c-1 -6 -1 -9 -1 -12c0 -18 11 -26 33 -26
c38 0 93 36 130 73zM346 543c-52 33 -90 63 -127 97l54 64c34 -34 72 -66 120 -103z" />
    <glyph glyph-name="aacute" unicode="&#xe1;" horiz-adv-x="516" 
d="M488 466l-82 -466h-101l-1 54c-42 -38 -94 -64 -159 -64c-84 0 -113 45 -113 111c0 16 2 33 5 51l25 142c23 132 54 203 242 203c47 0 134 -15 184 -31zM315 164l40 225c-22 4 -44 7 -69 7c-77 0 -92 -32 -103 -96l-30 -171c-1 -6 -1 -9 -1 -12c0 -18 11 -26 33 -26
c38 0 93 36 130 73zM274 543l-37 65c54 28 102 58 158 97l40 -72c-56 -38 -98 -60 -161 -90z" />
    <glyph glyph-name="acircumflex" unicode="&#xe2;" horiz-adv-x="516" 
d="M488 466l-82 -466h-101l-1 54c-42 -38 -94 -64 -159 -64c-84 0 -113 45 -113 111c0 16 2 33 5 51l25 142c23 132 54 203 242 203c47 0 134 -15 184 -31zM315 164l40 225c-22 4 -44 7 -69 7c-77 0 -92 -32 -103 -96l-30 -171c-1 -6 -1 -9 -1 -12c0 -18 11 -26 33 -26
c38 0 93 36 130 73zM422 536c-35 19 -66 42 -92 65c-34 -25 -62 -43 -104 -65l-35 58c49 29 95 58 154 103c35 -39 71 -73 116 -108z" />
    <glyph glyph-name="atilde" unicode="&#xe3;" horiz-adv-x="516" 
d="M488 466l-82 -466h-101l-1 54c-42 -38 -94 -64 -159 -64c-84 0 -113 45 -113 111c0 16 2 33 5 51l25 142c23 132 54 203 242 203c47 0 134 -15 184 -31zM315 164l40 225c-22 4 -44 7 -69 7c-77 0 -92 -32 -103 -96l-30 -171c-1 -6 -1 -9 -1 -12c0 -18 11 -26 33 -26
c38 0 93 36 130 73zM381 549c-53 0 -73 42 -109 42c-26 0 -45 -24 -58 -42l-44 41c25 45 62 77 108 77s78 -43 111 -43c23 0 34 12 47 37l51 -28c-22 -48 -48 -84 -106 -84z" />
    <glyph glyph-name="adieresis" unicode="&#xe4;" horiz-adv-x="516" 
d="M488 466l-82 -466h-101l-1 54c-42 -38 -94 -64 -159 -64c-84 0 -113 45 -113 111c0 16 2 33 5 51l25 142c23 132 54 203 242 203c47 0 134 -15 184 -31zM315 164l40 225c-22 4 -44 7 -69 7c-77 0 -92 -32 -103 -96l-30 -171c-1 -6 -1 -9 -1 -12c0 -18 11 -26 33 -26
c38 0 93 36 130 73zM176 557l19 105l98 4l-18 -105zM366 557l19 105l98 4l-18 -105z" />
    <glyph glyph-name="aring" unicode="&#xe5;" horiz-adv-x="516" 
d="M488 466l-82 -466h-101l-1 54c-42 -38 -94 -64 -159 -64c-84 0 -113 45 -113 111c0 16 2 33 5 51l25 142c23 132 54 203 242 203c47 0 134 -15 184 -31zM315 164l40 225c-22 4 -44 7 -69 7c-77 0 -92 -32 -103 -96l-30 -171c-1 -6 -1 -9 -1 -12c0 -18 11 -26 33 -26
c38 0 93 36 130 73zM319 542c-43 0 -74 30 -74 70c0 61 40 101 104 101c47 0 74 -31 74 -67c0 -55 -32 -104 -104 -104zM342 669c-26 0 -46 -22 -46 -51c0 -18 8 -31 30 -31c29 0 46 22 46 51c0 19 -10 31 -30 31z" />
    <glyph glyph-name="ae" unicode="&#xe6;" horiz-adv-x="703" 
d="M407 181l-6 -34c-1 -6 -2 -13 -2 -18c0 -27 14 -40 55 -40c58 0 109 18 170 49l24 -87c-63 -40 -134 -61 -208 -61c-62 0 -107 18 -133 52c-53 -41 -104 -52 -160 -52c-86 0 -130 53 -130 120c0 116 66 159 171 159h115l10 54c2 11 3 20 3 28c0 35 -21 47 -85 47
c-43 0 -94 -6 -140 -15l-12 89c50 14 119 25 173 25c66 0 112 -17 135 -60c33 38 86 60 149 60c101 0 155 -50 155 -127c0 -86 -59 -171 -284 -189zM431 316l-8 -44c97 10 152 34 152 89c0 20 -8 42 -48 42c-52 0 -85 -29 -96 -87zM288 181h-81c-50 2 -76 -10 -76 -62
c0 -20 11 -38 46 -38c33 0 73 12 105 30c-1 25 1 43 6 70z" />
    <glyph glyph-name="ccedilla" unicode="&#xe7;" horiz-adv-x="400" 
d="M400 477l-27 -96c-28 9 -67 14 -91 14c-70 0 -93 -20 -105 -88l-29 -165c-1 -6 -2 -12 -2 -17c0 -19 9 -32 37 -32c39 0 103 17 143 31l12 -97c-36 -18 -84 -31 -133 -35l-16 -47c12 2 23 3 32 3c39 0 58 -27 58 -56c0 -60 -39 -92 -122 -92c-21 0 -52 7 -72 15l15 48
c16 -5 38 -10 58 -10c40 0 57 13 57 34c0 13 -10 20 -29 20c-12 0 -27 0 -49 -2l-14 16l26 70c-87 6 -123 48 -123 120c0 16 2 30 5 48l29 164c24 135 89 174 224 174c37 0 88 -9 116 -20z" />
    <glyph glyph-name="egrave" unicode="&#xe8;" horiz-adv-x="458" 
d="M154 165l-4 -23c-5 -28 -6 -52 38 -52c52 0 124 24 187 56l26 -92c-59 -36 -149 -64 -230 -64c-129 0 -155 72 -137 174l26 148c21 115 75 185 222 185c93 0 156 -48 156 -127c0 -87 -57 -137 -190 -178c-59 -18 -71 -21 -94 -27zM246 295c54 17 77 38 77 70
c0 22 -19 38 -51 38c-55 0 -82 -34 -90 -80l-9 -50c17 5 24 7 73 22zM299 543c-52 33 -90 63 -127 97l54 64c34 -34 72 -66 120 -103z" />
    <glyph glyph-name="eacute" unicode="&#xe9;" horiz-adv-x="458" 
d="M154 165l-4 -23c-5 -28 -6 -52 38 -52c52 0 124 24 187 56l26 -92c-59 -36 -149 -64 -230 -64c-129 0 -155 72 -137 174l26 148c21 115 75 185 222 185c93 0 156 -48 156 -127c0 -87 -57 -137 -190 -178c-59 -18 -71 -21 -94 -27zM246 295c54 17 77 38 77 70
c0 22 -19 38 -51 38c-55 0 -82 -34 -90 -80l-9 -50c17 5 24 7 73 22zM233 543l-37 65c54 28 102 58 158 97l40 -72c-56 -38 -98 -60 -161 -90z" />
    <glyph glyph-name="ecircumflex" unicode="&#xea;" horiz-adv-x="458" 
d="M154 165l-4 -23c-5 -28 -6 -52 38 -52c52 0 124 24 187 56l26 -92c-59 -36 -149 -64 -230 -64c-129 0 -155 72 -137 174l26 148c21 115 75 185 222 185c93 0 156 -48 156 -127c0 -87 -57 -137 -190 -178c-59 -18 -71 -21 -94 -27zM246 295c54 17 77 38 77 70
c0 22 -19 38 -51 38c-55 0 -82 -34 -90 -80l-9 -50c17 5 24 7 73 22zM394 536c-35 19 -66 42 -92 65c-34 -25 -62 -43 -104 -65l-35 58c49 29 95 58 154 103c35 -39 71 -73 116 -108z" />
    <glyph glyph-name="edieresis" unicode="&#xeb;" horiz-adv-x="458" 
d="M154 165l-4 -23c-5 -28 -6 -52 38 -52c52 0 124 24 187 56l26 -92c-59 -36 -149 -64 -230 -64c-129 0 -155 72 -137 174l26 148c21 115 75 185 222 185c93 0 156 -48 156 -127c0 -87 -57 -137 -190 -178c-59 -18 -71 -21 -94 -27zM246 295c54 17 77 38 77 70
c0 22 -19 38 -51 38c-55 0 -82 -34 -90 -80l-9 -50c17 5 24 7 73 22zM150 557l19 105l98 4l-18 -105zM340 557l19 105l98 4l-18 -105z" />
    <glyph glyph-name="igrave" unicode="&#xec;" horiz-adv-x="260" 
d="M25 0l84 478l123 17l-87 -495h-120zM180 543c-52 33 -90 63 -127 97l54 64c34 -34 72 -66 120 -103z" />
    <glyph glyph-name="iacute" unicode="&#xed;" horiz-adv-x="260" 
d="M25 0l84 478l123 17l-87 -495h-120zM169 543l-37 65c54 28 102 58 158 97l40 -72c-56 -38 -98 -60 -161 -90z" />
    <glyph glyph-name="icircumflex" unicode="&#xee;" horiz-adv-x="260" 
d="M25 0l84 478l123 17l-87 -495h-120zM286 536c-35 19 -66 42 -92 65c-34 -25 -62 -43 -104 -65l-35 58c49 29 95 58 154 103c35 -39 71 -73 116 -108z" />
    <glyph glyph-name="idieresis" unicode="&#xef;" horiz-adv-x="260" 
d="M25 0l84 478l123 17l-87 -495h-120zM46 557l19 105l98 4l-18 -105zM236 557l19 105l98 4l-18 -105z" />
    <glyph glyph-name="eth" unicode="&#xf0;" horiz-adv-x="505" 
d="M189 500l76 53c-29 15 -63 26 -105 36l38 96c65 -11 116 -27 164 -58l66 45l30 -43l-52 -36c42 -41 65 -85 65 -156c0 -25 -3 -50 -9 -85l-33 -187c-19 -110 -65 -175 -224 -175c-131 0 -170 57 -170 131c0 11 1 26 4 43l12 70c21 121 71 176 195 176c35 0 74 -8 103 -20
c2 15 4 27 4 40c0 47 -15 72 -41 90l-93 -64zM221 91c61 0 78 17 88 74l22 126c-31 10 -57 15 -86 15c-42 0 -65 -16 -73 -63l-14 -79c-2 -12 -3 -21 -3 -29c0 -32 17 -44 66 -44z" />
    <glyph glyph-name="ntilde" unicode="&#xf1;" 
d="M310 0l61 347c1 5 1 11 1 13c0 13 -6 21 -25 21c-32 0 -100 -30 -145 -57l-57 -324h-120l84 477l104 18l-2 -59c64 35 140 61 197 61c67 0 89 -44 89 -97c0 -19 -2 -32 -5 -48l-62 -352h-120zM384 549c-53 0 -73 42 -109 42c-26 0 -45 -24 -58 -42l-44 41
c25 45 62 77 108 77s78 -43 111 -43c23 0 34 12 47 37l51 -28c-22 -48 -48 -84 -106 -84z" />
    <glyph glyph-name="ograve" unicode="&#xf2;" horiz-adv-x="521" 
d="M214 -10c-126 0 -181 73 -181 159c0 13 1 26 3 39l21 117c22 120 81 192 244 192c125 0 184 -70 184 -156c0 -12 -1 -23 -3 -35l-23 -130c-20 -114 -74 -186 -245 -186zM339 176l24 136c1 6 2 16 2 22c0 40 -25 62 -80 62c-63 0 -97 -29 -108 -89l-23 -131
c-1 -6 -2 -15 -2 -22c0 -39 22 -63 80 -63c63 0 97 28 107 85zM312 543c-52 33 -90 63 -127 97l54 64c34 -34 72 -66 120 -103z" />
    <glyph glyph-name="oacute" unicode="&#xf3;" horiz-adv-x="521" 
d="M214 -10c-126 0 -181 73 -181 159c0 13 1 26 3 39l21 117c22 120 81 192 244 192c125 0 184 -70 184 -156c0 -12 -1 -23 -3 -35l-23 -130c-20 -114 -74 -186 -245 -186zM339 176l24 136c1 6 2 16 2 22c0 40 -25 62 -80 62c-63 0 -97 -29 -108 -89l-23 -131
c-1 -6 -2 -15 -2 -22c0 -39 22 -63 80 -63c63 0 97 28 107 85zM270 543l-37 65c54 28 102 58 158 97l40 -72c-56 -38 -98 -60 -161 -90z" />
    <glyph glyph-name="ocircumflex" unicode="&#xf4;" horiz-adv-x="521" 
d="M214 -10c-126 0 -181 73 -181 159c0 13 1 26 3 39l21 117c22 120 81 192 244 192c125 0 184 -70 184 -156c0 -12 -1 -23 -3 -35l-23 -130c-20 -114 -74 -186 -245 -186zM339 176l24 136c1 6 2 16 2 22c0 40 -25 62 -80 62c-63 0 -97 -29 -108 -89l-23 -131
c-1 -6 -2 -15 -2 -22c0 -39 22 -63 80 -63c63 0 97 28 107 85zM412 536c-35 19 -66 42 -92 65c-34 -25 -62 -43 -104 -65l-35 58c49 29 95 58 154 103c35 -39 71 -73 116 -108z" />
    <glyph glyph-name="otilde" unicode="&#xf5;" horiz-adv-x="521" 
d="M214 -10c-126 0 -181 73 -181 159c0 13 1 26 3 39l21 117c22 120 81 192 244 192c125 0 184 -70 184 -156c0 -12 -1 -23 -3 -35l-23 -130c-20 -114 -74 -186 -245 -186zM339 176l24 136c1 6 2 16 2 22c0 40 -25 62 -80 62c-63 0 -97 -29 -108 -89l-23 -131
c-1 -6 -2 -15 -2 -22c0 -39 22 -63 80 -63c63 0 97 28 107 85zM368 549c-53 0 -73 42 -109 42c-26 0 -45 -24 -58 -42l-44 41c25 45 62 77 108 77s78 -43 111 -43c23 0 34 12 47 37l51 -28c-22 -48 -48 -84 -106 -84z" />
    <glyph glyph-name="odieresis" unicode="&#xf6;" horiz-adv-x="521" 
d="M214 -10c-126 0 -181 73 -181 159c0 13 1 26 3 39l21 117c22 120 81 192 244 192c125 0 184 -70 184 -156c0 -12 -1 -23 -3 -35l-23 -130c-20 -114 -74 -186 -245 -186zM339 176l24 136c1 6 2 16 2 22c0 40 -25 62 -80 62c-63 0 -97 -29 -108 -89l-23 -131
c-1 -6 -2 -15 -2 -22c0 -39 22 -63 80 -63c63 0 97 28 107 85zM173 557l19 105l98 4l-18 -105zM363 557l19 105l98 4l-18 -105z" />
    <glyph glyph-name="divide" unicode="&#xf7;" horiz-adv-x="539" 
d="M213 358v118h113v-118h-113zM65 205v78h409v-78h-409zM213 10v118h113v-118h-113z" />
    <glyph glyph-name="oslash" unicode="&#xf8;" horiz-adv-x="521" 
d="M6 -21l59 70c-22 27 -32 62 -32 100c0 13 1 26 3 39l21 117c22 120 81 192 244 192c50 0 90 -11 119 -30l60 70l34 -29l-61 -71c22 -27 32 -60 32 -96c0 -12 -1 -23 -3 -35l-23 -130c-20 -114 -74 -186 -245 -186c-50 0 -88 11 -117 30l-58 -69zM152 154v-3l194 228
c-13 11 -33 17 -61 17c-63 0 -97 -29 -108 -89l-23 -131c-1 -6 -2 -15 -2 -22zM339 176l24 136c1 6 2 15 2 21l-194 -226c13 -10 33 -16 61 -16c63 0 97 28 107 85z" />
    <glyph glyph-name="ugrave" unicode="&#xf9;" 
d="M227 495l-62 -355c-1 -7 -1 -11 -1 -13c0 -13 6 -21 25 -21c32 0 100 30 145 57l55 315l123 17l-87 -495h-102l2 51c-64 -35 -140 -61 -197 -61c-67 0 -89 44 -89 97c0 19 2 32 5 48l60 343zM326 543c-52 33 -90 63 -127 97l54 64c34 -34 72 -66 120 -103z" />
    <glyph glyph-name="uacute" unicode="&#xfa;" 
d="M227 495l-62 -355c-1 -7 -1 -11 -1 -13c0 -13 6 -21 25 -21c32 0 100 30 145 57l55 315l123 17l-87 -495h-102l2 51c-64 -35 -140 -61 -197 -61c-67 0 -89 44 -89 97c0 19 2 32 5 48l60 343zM291 543l-37 65c54 28 102 58 158 97l40 -72c-56 -38 -98 -60 -161 -90z" />
    <glyph glyph-name="ucircumflex" unicode="&#xfb;" 
d="M227 495l-62 -355c-1 -7 -1 -11 -1 -13c0 -13 6 -21 25 -21c32 0 100 30 145 57l55 315l123 17l-87 -495h-102l2 51c-64 -35 -140 -61 -197 -61c-67 0 -89 44 -89 97c0 19 2 32 5 48l60 343zM429 536c-35 19 -66 42 -92 65c-34 -25 -62 -43 -104 -65l-35 58
c49 29 95 58 154 103c35 -39 71 -73 116 -108z" />
    <glyph glyph-name="udieresis" unicode="&#xfc;" 
d="M227 495l-62 -355c-1 -7 -1 -11 -1 -13c0 -13 6 -21 25 -21c32 0 100 30 145 57l55 315l123 17l-87 -495h-102l2 51c-64 -35 -140 -61 -197 -61c-67 0 -89 44 -89 97c0 19 2 32 5 48l60 343zM184 557l19 105l98 4l-18 -105zM374 557l19 105l98 4l-18 -105z" />
    <glyph glyph-name="yacute" unicode="&#xfd;" horiz-adv-x="476" 
d="M449 347l-161 -347c-56 -110 -99 -163 -246 -213l-33 93c84 29 117 60 155 120h-41l-70 475l119 17l46 -386l115 259c11 26 14 47 14 67c0 16 -2 30 -7 46l117 17c6 -19 9 -43 9 -61c0 -24 -4 -58 -17 -87zM233 543l-37 65c54 28 102 58 158 97l40 -72
c-56 -38 -98 -60 -161 -90z" />
    <glyph glyph-name="thorn" unicode="&#xfe;" horiz-adv-x="528" 
d="M-13 -214l159 900l123 17l-46 -261c40 33 89 55 156 55c84 0 113 -45 113 -111c0 -16 -2 -33 -5 -51l-25 -142c-22 -125 -45 -203 -237 -203c-18 0 -53 3 -80 9l-35 -196zM202 323l-40 -226c22 -5 54 -6 71 -6c77 0 97 31 108 95l30 172c1 6 1 9 1 12c0 18 -12 26 -34 26
c-51 0 -110 -41 -136 -73z" />
    <glyph glyph-name="ydieresis" unicode="&#xff;" horiz-adv-x="476" 
d="M449 347l-161 -347c-56 -110 -99 -163 -246 -213l-33 93c84 29 117 60 155 120h-41l-70 475l119 17l46 -386l115 259c11 26 14 47 14 67c0 16 -2 30 -7 46l117 17c6 -19 9 -43 9 -61c0 -24 -4 -58 -17 -87zM129 557l19 105l98 4l-18 -105zM319 557l19 105l98 4l-18 -105z
" />
    <glyph glyph-name="Acute" unicode="&#xf6c9;" horiz-adv-x="289" 
d="M187 710l-37 65c50 29 82 48 133 85l41 -72c-44 -31 -83 -54 -137 -78z" />
    <glyph glyph-name="Breve" unicode="&#xe000;" horiz-adv-x="384" 
d="M274 709c-71 0 -120 46 -124 101l62 25c8 -36 31 -57 71 -57s60 21 78 60l58 -30c-17 -55 -60 -99 -145 -99z" />
    <glyph glyph-name="Caron" unicode="&#xf6ca;" horiz-adv-x="351" 
d="M174 851c40 -20 57 -32 85 -52c28 21 56 37 88 52l34 -59c-51 -29 -87 -51 -137 -86c-27 28 -62 57 -109 91z" />
    <glyph glyph-name="Cedilla" unicode="&#xe001;" horiz-adv-x="289" 
d="M62 -200c-21 0 -52 7 -72 15l15 48c16 -5 38 -10 58 -10c40 0 57 13 57 34c0 13 -10 20 -29 20c-12 0 -27 0 -49 -2l-14 16l36 94h54l-24 -70c12 2 23 3 32 3c39 0 58 -27 58 -56c0 -60 -39 -92 -122 -92z" />
    <glyph glyph-name="Circumflex" unicode="&#xe002;" horiz-adv-x="356" 
d="M347 711c-40 20 -57 32 -85 52c-28 -20 -56 -37 -88 -52l-34 59c51 29 87 51 137 86c27 -28 62 -57 109 -91z" />
    <glyph glyph-name="Delta" unicode="&#x2206;" horiz-adv-x="736" 
d="M11 0l364 666h130l132 -666h-626zM422 538l-225 -438h300z" />
    <glyph glyph-name="Dieresis" unicode="&#xf6cb;" horiz-adv-x="422" 
d="M339 729l17 97h101l-17 -97h-101zM130 729l17 97h101l-17 -97h-101z" />
    <glyph glyph-name="Dotaccent" unicode="&#xe003;" horiz-adv-x="252" 
d="M140 720l24 137l123 17l-24 -136z" />
    <glyph glyph-name="Grave" unicode="&#xf6ce;" horiz-adv-x="292" 
d="M251 711c-50 29 -85 58 -116 85l53 64c34 -33 62 -55 109 -90z" />
    <glyph glyph-name="Hungarumlaut" unicode="&#xf6cf;" horiz-adv-x="434" 
d="M197 710l-47 58c44 35 66 55 104 92l52 -64c-42 -39 -69 -58 -109 -86zM375 710l-47 58c44 35 66 55 104 92l52 -64c-42 -39 -69 -58 -109 -86z" />
    <glyph glyph-name="Macron" unicode="&#xf6d0;" horiz-adv-x="365" 
d="M140 725l14 80h246l-14 -80h-246z" />
    <glyph glyph-name="Ogonek" unicode="&#xe004;" horiz-adv-x="323" 
d="M154 -135l3 -59c-22 -9 -49 -13 -71 -13c-56 0 -86 23 -86 63c0 67 64 108 146 144h52c-80 -54 -108 -83 -108 -116c0 -14 8 -23 30 -23c10 0 23 1 34 4z" />
    <glyph glyph-name="Omega" unicode="&#x2126;" horiz-adv-x="693" 
d="M464 203l46 260c1 7 2 15 2 25c0 49 -31 78 -111 78c-89 0 -133 -37 -145 -103l-46 -260c-1 -6 -3 -19 -3 -25c0 -39 9 -67 44 -95l-14 -83h-214l14 82h80c-26 27 -36 52 -36 82c0 11 2 22 4 33l48 275c23 130 98 204 281 204c161 0 224 -82 224 -177
c0 -10 -1 -21 -3 -33l-48 -274c-9 -49 -31 -85 -65 -110h88l-14 -82h-230l14 83c46 23 74 64 84 120z" />
    <glyph glyph-name="Ring" unicode="&#xe005;" horiz-adv-x="283" 
d="M220 709c-41 0 -70 26 -70 64c0 58 35 93 96 93c45 0 72 -27 72 -61c0 -52 -28 -96 -98 -96zM240 823c-24 0 -40 -17 -40 -45c0 -15 8 -26 27 -26c26 0 40 18 40 45c0 16 -9 26 -27 26z" />
    <glyph glyph-name="Tilde" unicode="&#xe006;" horiz-adv-x="432" 
d="M350 719c-52 0 -72 42 -108 42c-24 0 -43 -24 -58 -42l-44 41c24 45 62 77 108 77s78 -43 111 -43c22 0 34 12 47 37l51 -28c-22 -48 -49 -84 -107 -84z" />
    <glyph glyph-name="apple" unicode="&#xe007;" horiz-adv-x="851" 
d="M481 335v-335h-331v666h666v-331h-335z" />
    <glyph glyph-name="approxequal" unicode="&#x2248;" horiz-adv-x="554" 
d="M366 260c-72 0 -100 58 -166 58c-35 0 -65 -18 -90 -37l-40 73c32 32 82 60 131 60c76 0 120 -60 169 -60c35 0 57 14 80 35l44 -69c-28 -29 -68 -60 -128 -60zM366 75c-72 0 -100 58 -166 58c-35 0 -65 -18 -90 -37l-40 73c32 32 82 60 131 60c76 0 120 -60 169 -60
c35 0 57 14 80 35l44 -69c-28 -29 -68 -60 -128 -60z" />
    <glyph glyph-name="greaterequal" unicode="&#x2265;" horiz-adv-x="527" 
d="M456 310l-331 -173l-36 70l263 137l-263 132l36 70l331 -170v-66zM472 82v-82h-407v82h407z" />
    <glyph glyph-name="infinity" unicode="&#x221e;" horiz-adv-x="883" 
d="M662 100c-88 0 -149 54 -211 115c-61 -61 -123 -115 -211 -115c-112 0 -191 61 -191 179s76 181 191 181c88 0 150 -53 211 -115c62 62 123 115 211 115c114 0 192 -63 192 -181s-81 -179 -192 -179zM661 364c-53 0 -96 -38 -140 -84c45 -47 87 -83 140 -83s89 27 89 82
c0 56 -36 85 -89 85zM241 364c-54 0 -88 -29 -88 -85c0 -55 35 -82 88 -82c54 0 95 36 141 83c-45 46 -87 84 -141 84z" />
    <glyph glyph-name="integral" unicode="&#x222b;" horiz-adv-x="380" 
d="M377 562c-16 6 -36 11 -53 11c-25 0 -35 -11 -39 -35l-109 -617c-16 -91 -52 -128 -141 -128c-33 0 -70 10 -96 22l24 86c17 -7 40 -11 54 -11c27 0 35 8 40 36l109 618c16 90 48 132 142 132c33 0 74 -10 98 -22z" />
    <glyph glyph-name="lessequal" unicode="&#x2264;" horiz-adv-x="527" 
d="M402 137l-331 173v66l331 170l36 -70l-263 -132l263 -137zM55 0v82h407v-82h-407z" />
    <glyph glyph-name="lozenge" unicode="&#x25ca;" horiz-adv-x="581" 
d="M339 0h-73l-218 334l218 332h73l219 -332zM303 558l-148 -224l148 -225l147 225z" />
    <glyph glyph-name="notequal" unicode="&#x2260;" horiz-adv-x="490" 
d="M55 306v81h225l68 131l67 -35l-50 -96h85v-81h-127l-56 -110h183v-81h-225l-66 -129l-67 36l48 93h-85v81h127l56 110h-183z" />
    <glyph glyph-name="partialdiff" unicode="&#x2202;" horiz-adv-x="578" 
d="M463 169c-48 -131 -74 -179 -267 -179c-113 0 -165 48 -165 115c0 19 4 42 13 64l33 93c41 115 84 163 231 163c38 0 83 -10 117 -26l11 34c12 36 20 64 20 86c0 53 -30 73 -110 73c-43 0 -87 -8 -138 -24l-15 92c51 22 125 36 189 36c130 0 193 -53 193 -151
c0 -38 -9 -84 -28 -136zM300 325c-73 0 -88 -18 -108 -73l-31 -86c-6 -17 -10 -31 -10 -42c0 -24 20 -33 77 -33c69 0 93 13 114 75l48 136c-22 13 -57 23 -90 23z" />
    <glyph glyph-name="pi" unicode="&#x3c0;" horiz-adv-x="669" 
d="M481 -10c-77 0 -111 34 -111 91c0 10 1 20 3 30l49 277h-142c-18 -116 -47 -258 -102 -388h-117c53 129 82 252 104 388h-110l17 99h585l-17 -99h-102l-47 -263c-1 -7 -2 -13 -2 -19c0 -16 9 -23 30 -23c18 0 40 6 55 13l3 -85c-22 -13 -59 -21 -96 -21z" />
    <glyph glyph-name="product" unicode="&#x220f;" horiz-adv-x="785" 
d="M673 556l-115 -656h-119l115 656h-217l-115 -656h-119l115 656h-124l19 110h704l-19 -110h-125z" />
    <glyph glyph-name="radical" unicode="&#x221a;" horiz-adv-x="674" 
d="M581 634l-296 -634h-129l-73 458l108 10l48 -322l270 584h234l-11 -96h-151z" />
    <glyph glyph-name="summation" unicode="&#x2211;" horiz-adv-x="542" 
d="M16 -100l19 111l260 276l-168 268l20 111h400l-19 -110h-254l168 -267l-249 -279h252l-20 -110h-409z" />
  </font>
</defs>
</svg>
